advent_pro_bld.ufo
<glyph name="one" format="1">
  <advance width="285"/>
  <unicode hex="0031"/>
  <outline>
    <contour>
      <point x="18" y="627" type="line"/>
      <point x="15.5" y="627.417"/>
      <point x="96.25" y="643.583"/>
      <point x="132" y="698" type="curve"/>
      <point x="242" y="698" type="line"/>
      <point x="242" y="0" type="line"/>
      <point x="131" y="0" type="line"/>
      <point x="132" y="557" type="line"/>
      <point x="111.75" y="540.833"/>
      <point x="48.75" y="530.667"/>
      <point x="51" y="531" type="curve"/>
    </contour>
  </outline>
</glyph>
<glyph name="four" format="1">
  <advance width="540"/>
  <unicode hex="0034"/>
  <outline>
    <contour>
      <point x="333" y="0" type="line"/>
      <point x="333" y="306" type="line"/>
      <point x="19" y="306" type="line"/>
      <point x="212" y="698" type="line"/>
      <point x="324" y="698" type="line"/>
      <point x="197" y="413" type="line"/>
      <point x="333" y="413" type="line"/>
      <point x="333" y="698" type="line"/>
      <point x="443" y="698" type="line"/>
      <point x="443" y="413" type="line"/>
      <point x="512" y="413" type="line"/>
      <point x="493" y="306" type="line"/>
      <point x="443" y="306" type="line"/>
      <point x="443" y="0" type="line"/>
    </contour>
  </outline>
</glyph>
<glyph name="five" format="1">
  <advance width="444"/>
  <unicode hex="0035"/>
  <outline>
    <contour>
      <point x="185" y="411" type="line"/>
      <point x="195" y="411" type="line"/>
      <point x="345.042" y="406.999"/>
      <point x="414" y="311.584"/>
      <point x="414" y="199" type="curve" smooth="yes"/>
      <point x="414" y="107.753"/>
      <point x="342.364" y="-12"/>
      <point x="202" y="-12" type="curve"/>
      <point x="101.333" y="-13.5556"/>
      <point x="19.3333" y="43.5555"/>
      <point x="20" y="42" type="curve"/>
      <point x="60" y="137" type="line"/>
      <point x="59.4167" y="138.667"/>
      <point x="114.333" y="95.3334"/>
      <point x="200" y="97" type="curve"/>
      <point x="268.2" y="97"/>
      <point x="305" y="145.717"/>
      <point x="305" y="204" type="curve" smooth="yes"/>
      <point x="305" y="280.517"/>
      <point x="255.167" y="310"/>
      <point x="169" y="310" type="curve" smooth="yes"/>
      <point x="69" y="310" type="line"/>
      <point x="92" y="698" type="line"/>
      <point x="358" y="698" type="line"/>
      <point x="358" y="588" type="line"/>
      <point x="194" y="588" type="line"/>
    </contour>
  </outline>
</glyph>
<glyph name="six" format="1">
  <advance width="486"/>
  <unicode hex="0036"/>
  <outline>
    <contour>
      <point x="273" y="598" type="line" smooth="yes"/>
      <point x="175" y="598"/>
      <point x="142" y="524"/>
      <point x="142" y="437" type="curve" smooth="yes"/>
      <point x="142" y="384" type="line"/>
      <point x="154" y="402"/>
      <point x="225" y="413"/>
      <point x="246" y="413" type="curve" smooth="yes"/>
      <point x="364" y="413"/>
      <point x="458" y="323"/>
      <point x="458" y="204" type="curve" smooth="yes"/>
      <point x="458" y="85"/>
      <point x="365" y="-10"/>
      <point x="246" y="-10" type="curve" smooth="yes"/>
      <point x="126" y="-10"/>
      <point x="34" y="85"/>
      <point x="34" y="204" type="curve" smooth="yes"/>
      <point x="34" y="460" type="line" smooth="yes"/>
      <point x="34" y="609"/>
      <point x="129" y="698"/>
      <point x="278" y="698" type="curve" smooth="yes"/>
      <point x="312" y="698" type="line"/>
      <point x="312" y="598" type="line"/>
    </contour>
    <contour>
      <point x="246" y="305" type="curve" smooth="yes"/>
      <point x="190.617" y="305"/>
      <point x="142" y="258.067"/>
      <point x="142" y="202" type="curve" smooth="yes"/>
      <point x="142" y="145.267"/>
      <point x="190.617" y="98"/>
      <point x="246" y="98" type="curve" smooth="yes"/>
      <point x="302.967" y="98"/>
      <point x="349" y="145.267"/>
      <point x="349" y="202" type="curve" smooth="yes"/>
      <point x="349" y="258.067"/>
      <point x="302.967" y="305"/>
    </contour>
  </outline>
</glyph>
<glyph name="eight" format="1">
  <advance width="486"/>
  <unicode hex="0038"/>
  <outline>
    <contour>
      <point x="243" y="708" type="curve" smooth="yes"/>
      <point x="291.667" y="708"/>
      <point x="333" y="690.667"/>
      <point x="367" y="656" type="curve" smooth="yes"/>
      <point x="401.667" y="621.333"/>
      <point x="419" y="581.333"/>
      <point x="419" y="532" type="curve" smooth="yes"/>
      <point x="419" y="498.667"/>
      <point x="411.333" y="468.667"/>
      <point x="396" y="442" type="curve" smooth="yes"/>
      <point x="382.667" y="420.667"/>
      <point x="364.667" y="402.667"/>
      <point x="342" y="388" type="curve"/>
      <point x="360.667" y="377.333"/>
      <point x="378.667" y="364.667"/>
      <point x="392" y="350" type="curve"/>
      <point x="432" y="311.333"/>
      <point x="455" y="258.333"/>
      <point x="455" y="201" type="curve" smooth="yes"/>
      <point x="455" y="142.333"/>
      <point x="433.667" y="91.3333"/>
      <point x="391" y="50" type="curve" smooth="yes"/>
      <point x="349.667" y="8.66667"/>
      <point x="300" y="-12"/>
      <point x="242" y="-12" type="curve" smooth="yes"/>
      <point x="183.333" y="-12"/>
      <point x="133.333" y="8.66667"/>
      <point x="92" y="50" type="curve" smooth="yes"/>
      <point x="50.6667" y="91.3333"/>
      <point x="29" y="142.333"/>
      <point x="29" y="201" type="curve" smooth="yes"/>
      <point x="29" y="251.667"/>
      <point x="47.6667" y="296.667"/>
      <point x="77" y="334" type="curve" smooth="yes"/>
      <point x="94.3333" y="356.667"/>
      <point x="116.333" y="375.667"/>
      <point x="143" y="389" type="curve"/>
      <point x="120.333" y="404.333"/>
      <point x="103.333" y="422"/>
      <point x="92" y="442" type="curve"/>
      <point x="74.6667" y="468.667"/>
      <point x="69" y="498.667"/>
      <point x="69" y="532" type="curve" smooth="yes"/>
      <point x="69" y="580.667"/>
      <point x="85.6667" y="622"/>
      <point x="119" y="656" type="curve" smooth="yes"/>
      <point x="151.667" y="690.667"/>
      <point x="193" y="708"/>
    </contour>
    <contour>
      <point x="242" y="466" type="curve" smooth="yes"/>
      <point x="260.667" y="466"/>
      <point x="279" y="476.667"/>
      <point x="291" y="490" type="curve" smooth="yes"/>
      <point x="301.667" y="500.667"/>
      <point x="309" y="517"/>
      <point x="309" y="533" type="curve" smooth="yes"/>
      <point x="309" y="571.15"/>
      <point x="279.467" y="599"/>
      <point x="242" y="599" type="curve" smooth="yes"/>
      <point x="205.433" y="599"/>
      <point x="175" y="571.15"/>
      <point x="175" y="533" type="curve" smooth="yes"/>
      <point x="175" y="517"/>
      <point x="180.667" y="502.667"/>
      <point x="192" y="490" type="curve" smooth="yes"/>
      <point x="202.667" y="476.667"/>
      <point x="222" y="466"/>
    </contour>
    <contour>
      <point x="242" y="96" type="curve" smooth="yes"/>
      <point x="299.633" y="96"/>
      <point x="346" y="142.7"/>
      <point x="346" y="201" type="curve" smooth="yes"/>
      <point x="346" y="234.333"/>
      <point x="331.667" y="263.333"/>
      <point x="309" y="282" type="curve" smooth="yes"/>
      <point x="290.333" y="296.667"/>
      <point x="268.667" y="306"/>
      <point x="242" y="306" type="curve" smooth="yes"/>
      <point x="212.667" y="306"/>
      <point x="182.667" y="293.333"/>
      <point x="164" y="272" type="curve" smooth="yes"/>
      <point x="148" y="253.333"/>
      <point x="137" y="227.667"/>
      <point x="137" y="201" type="curve" smooth="yes"/>
      <point x="137" y="142.7"/>
      <point x="183.7" y="96"/>
    </contour>
  </outline>
</glyph>
<glyph name="at" format="1">
  <advance width="817"/>
  <unicode hex="0040"/>
  <outline>
    <contour>
      <point x="788" y="415" type="line"/>
      <point x="747.355" y="394.677"/>
      <point x="744" y="372.641"/>
      <point x="744" y="335" type="curve" smooth="yes"/>
      <point x="744" y="178" type="line" smooth="yes"/>
      <point x="744" y="38.5714"/>
      <point x="652.823" y="-94"/>
      <point x="394" y="-94" type="curve" smooth="yes"/>
      <point x="182.39" y="-94"/>
      <point x="33" y="-1.74892"/>
      <point x="33" y="184" type="curve" smooth="yes"/>
      <point x="33" y="323" type="line" smooth="yes"/>
      <point x="33" y="522.033"/>
      <point x="133.883" y="604"/>
      <point x="310" y="604" type="curve" smooth="yes"/>
      <point x="450.833" y="604"/>
      <point x="555" y="576.883"/>
      <point x="555" y="443" type="curve"/>
      <point x="616" y="443" type="line"/>
      <point x="594" y="345" type="line"/>
      <point x="558" y="345" type="line"/>
      <point x="558" y="70" type="line"/>
      <point x="559.007" y="69.6667"/>
      <point x="438" y="61"/>
      <point x="360" y="61" type="curve" smooth="yes"/>
      <point x="237" y="61"/>
      <point x="199" y="141.766"/>
      <point x="199" y="234" type="curve" smooth="yes"/>
      <point x="199" y="285" type="line" smooth="yes"/>
      <point x="199" y="401"/>
      <point x="259.242" y="443"/>
      <point x="338" y="443" type="curve" smooth="yes"/>
      <point x="449" y="443" type="line"/>
      <point x="449" y="496.333"/>
      <point x="399.333" y="504"/>
      <point x="314" y="504" type="curve" smooth="yes"/>
      <point x="167.074" y="504"/>
      <point x="136" y="442.052"/>
      <point x="136" y="330" type="curve" smooth="yes"/>
      <point x="136" y="226" type="line" smooth="yes"/>
      <point x="136" y="70.5667"/>
      <point x="208.933" y="5"/>
      <point x="398" y="5" type="curve" smooth="yes"/>
      <point x="562.13" y="5"/>
      <point x="643" y="57.9221"/>
      <point x="643" y="162" type="curve" smooth="yes"/>
      <point x="643" y="348" type="line" smooth="yes"/>
      <point x="643" y="414.82"/>
      <point x="662.977" y="465.996"/>
      <point x="757" y="484" type="curve"/>
    </contour>
    <contour>
      <point x="366" y="345" type="line" smooth="yes"/>
      <point x="343.75" y="345"/>
      <point x="309" y="331.65"/>
      <point x="309" y="282" type="curve" smooth="yes"/>
      <point x="309" y="233" type="line" smooth="yes"/>
      <point x="309" y="167.667"/>
      <point x="334" y="153"/>
      <point x="379" y="153" type="curve" smooth="yes"/>
      <point x="402" y="153"/>
      <point x="424.924" y="153.292"/>
      <point x="452" y="156" type="curve"/>
      <point x="452" y="345" type="line"/>
    </contour>
  </outline>
</glyph>
<glyph name="A" format="1">
  <advance width="543"/>
  <unicode hex="0041"/>
  <outline>
    <contour>
      <point x="520" y="0" type="line"/>
      <point x="389" y="0" type="line"/>
      <point x="349" y="183" type="line"/>
      <point x="188" y="183" type="line"/>
      <point x="148" y="0" type="line"/>
      <point x="24" y="0" type="line"/>
      <point x="193" y="698" type="line"/>
      <point x="348" y="698" type="line"/>
    </contour>
    <contour>
      <point x="215" y="300" type="line"/>
      <point x="324" y="300" type="line"/>
      <point x="269" y="555" type="line"/>
    </contour>
  </outline>
</glyph>
<glyph name="B" format="1">
  <advance width="505"/>
  <unicode hex="0042"/>
  <outline>
    <contour>
      <point x="245" y="698" type="line" smooth="yes"/>
      <point x="361" y="698"/>
      <point x="438" y="633"/>
      <point x="438" y="521" type="curve" smooth="yes"/>
      <point x="438" y="459.667"/>
      <point x="415" y="414.667"/>
      <point x="371" y="384" type="curve"/>
      <point x="371" y="381" type="line"/>
      <point x="429.667" y="354.333"/>
      <point x="474" y="295.667"/>
      <point x="474" y="205" type="curve" smooth="yes"/>
      <point x="474" y="81"/>
      <point x="398.667" y="0"/>
      <point x="260" y="0" type="curve" smooth="yes"/>
      <point x="41" y="0" type="line"/>
      <point x="41" y="698" type="line"/>
    </contour>
    <contour>
      <point x="199" y="413" type="line" smooth="yes"/>
      <point x="277.05" y="413"/>
      <point x="310" y="436.017"/>
      <point x="310" y="505" type="curve" smooth="yes"/>
      <point x="310" y="567.667"/>
      <point x="277" y="588"/>
      <point x="209" y="588" type="curve" smooth="yes"/>
      <point x="151" y="588" type="line"/>
      <point x="151" y="413" type="line"/>
    </contour>
    <contour>
      <point x="231" y="101" type="line" smooth="yes"/>
      <point x="279.3" y="101"/>
      <point x="348" y="120.583"/>
      <point x="348" y="207" type="curve" smooth="yes"/>
      <point x="348" y="273.667"/>
      <point x="306.333" y="307"/>
      <point x="221" y="307" type="curve" smooth="yes"/>
      <point x="151" y="307" type="line"/>
      <point x="151" y="101" type="line"/>
    </contour>
  </outline>
</glyph>
<glyph name="C" format="1">
  <advance width="426"/>
  <unicode hex="0043"/>
  <outline>
    <contour>
      <point x="342" y="582" type="line"/>
      <point x="315.333" y="592.667"/>
      <point x="278.667" y="599"/>
      <point x="248" y="599" type="curve" smooth="yes"/>
      <point x="182.667" y="599"/>
      <point x="146" y="574.667"/>
      <point x="146" y="512" type="curve" smooth="yes"/>
      <point x="146" y="185" type="line" smooth="yes"/>
      <point x="146" y="123.383"/>
      <point x="179.7" y="100"/>
      <point x="239" y="100" type="curve" smooth="yes"/>
      <point x="299.5" y="100"/>
      <point x="369" y="127"/>
      <point x="380" y="127" type="curve"/>
      <point x="396" y="23" type="line"/>
      <point x="338" y="0.333334"/>
      <point x="283.667" y="-11.3333"/>
      <point x="233" y="-12" type="curve"/>
      <point x="179.667" y="-12"/>
      <point x="129.667" y="2.66667"/>
      <point x="95" y="32" type="curve" smooth="yes"/>
      <point x="59" y="64"/>
      <point x="36" y="113.667"/>
      <point x="36" y="183" type="curve" smooth="yes"/>
      <point x="36" y="509" type="line" smooth="yes"/>
      <point x="36" y="640.3"/>
      <point x="118" y="710"/>
      <point x="228" y="710" type="curve" smooth="yes"/>
      <point x="276" y="710"/>
      <point x="324" y="698.333"/>
      <point x="372" y="675" type="curve"/>
    </contour>
  </outline>
</glyph>
<glyph name="G" format="1">
  <advance width="480"/>
  <unicode hex="0047"/>
  <outline>
    <contour>
      <point x="339" y="576" type="line"/>
      <point x="307" y="586.667"/>
      <point x="276" y="594"/>
      <point x="248" y="594" type="curve" smooth="yes"/>
      <point x="188" y="594"/>
      <point x="146" y="579"/>
      <point x="146" y="510" type="curve" smooth="yes"/>
      <point x="146" y="187" type="line" smooth="yes"/>
      <point x="146" y="123"/>
      <point x="180.667" y="92"/>
      <point x="246" y="92" type="curve" smooth="yes"/>
      <point x="299.94" y="92"/>
      <point x="337" y="133.845"/>
      <point x="337" y="186" type="curve" smooth="yes"/>
      <point x="337" y="195" type="line"/>
      <point x="280" y="195" type="line"/>
      <point x="245" y="300" type="line"/>
      <point x="447" y="300" type="line"/>
      <point x="447" y="0" type="line"/>
      <point x="371" y="0" type="line"/>
      <point x="366" y="28" type="line"/>
      <point x="331.732" y="-0.220549"/>
      <point x="271" y="-9"/>
      <point x="247" y="-10" type="curve" smooth="yes"/>
      <point x="133" y="-13"/>
      <point x="36" y="54"/>
      <point x="36" y="189" type="curve" smooth="yes"/>
      <point x="36" y="502" type="line" smooth="yes"/>
      <point x="36" y="642"/>
      <point x="110" y="708"/>
      <point x="242" y="708" type="curve"/>
      <point x="289.333" y="706"/>
      <point x="332.667" y="695"/>
      <point x="372" y="675" type="curve"/>
    </contour>
  </outline>
</glyph>
<glyph name="I" format="1">
  <advance width="239"/>
  <unicode hex="0049"/>
  <outline>
    <contour>
      <point x="23" y="593" type="line"/>
      <point x="23" y="698" type="line"/>
      <point x="196" y="698" type="line"/>
      <point x="196" y="0" type="line"/>
      <point x="86" y="0" type="line"/>
      <point x="86" y="591" type="line"/>
    </contour>
  </outline>
</glyph>
<glyph name="P" format="1">
  <advance width="507"/>
  <unicode hex="0050"/>
  <outline>
    <contour>
      <point x="258" y="698" type="line" smooth="yes"/>
      <point x="362.814" y="698"/>
      <point x="476" y="648.463"/>
      <point x="476" y="451" type="curve" smooth="yes"/>
      <point x="476" y="234.688"/>
      <point x="365.377" y="195"/>
      <point x="258" y="195" type="curve" smooth="yes"/>
      <point x="254.333" y="195"/>
      <point x="149.333" y="195"/>
      <point x="151" y="195" type="curve"/>
      <point x="151" y="0" type="line"/>
      <point x="41" y="0" type="line"/>
      <point x="41" y="698" type="line"/>
    </contour>
    <contour>
      <point x="151" y="300" type="line"/>
      <point x="148.25" y="300"/>
      <point x="215.25" y="300"/>
      <point x="217" y="300" type="curve"/>
      <point x="320.617" y="300"/>
      <point x="365" y="317.033"/>
      <point x="365" y="451" type="curve" smooth="yes"/>
      <point x="365" y="577.433"/>
      <point x="319.717" y="588"/>
      <point x="217" y="588" type="curve" smooth="yes"/>
      <point x="151" y="588" type="line"/>
    </contour>
  </outline>
</glyph>
<glyph name="R" format="1">
  <advance width="511"/>
  <unicode hex="0052"/>
  <outline>
    <contour>
      <point x="258" y="698" type="line" smooth="yes"/>
      <point x="362.814" y="698"/>
      <point x="476" y="648.463"/>
      <point x="476" y="451" type="curve" smooth="yes"/>
      <point x="476" y="333.667"/>
      <point x="443" y="266.667"/>
      <point x="395" y="232" type="curve"/>
      <point x="480" y="0" type="line"/>
      <point x="363" y="0" type="line"/>
      <point x="294" y="196" type="line"/>
      <point x="282" y="194.667"/>
      <point x="270" y="195"/>
      <point x="258" y="195" type="curve" smooth="yes"/>
      <point x="151" y="195" type="line"/>
      <point x="151" y="0" type="line"/>
      <point x="41" y="0" type="line"/>
      <point x="41" y="698" type="line"/>
    </contour>
    <contour>
      <point x="217" y="300" type="line" smooth="yes"/>
      <point x="320.617" y="300"/>
      <point x="365" y="317.033"/>
      <point x="365" y="451" type="curve" smooth="yes"/>
      <point x="365" y="577.433"/>
      <point x="319.717" y="588"/>
      <point x="217" y="588" type="curve" smooth="yes"/>
      <point x="151" y="588" type="line"/>
      <point x="151" y="300" type="line"/>
    </contour>
  </outline>
</glyph>
<glyph name="U" format="1">
  <advance width="499"/>
  <unicode hex="0055"/>
  <outline>
    <contour>
      <point x="459" y="185" type="line" smooth="yes"/>
      <point x="459" y="117.667"/>
      <point x="438.333" y="68"/>
      <point x="397" y="36" type="curve" smooth="yes"/>
      <point x="356.333" y="4.66667"/>
      <point x="307.333" y="-11"/>
      <point x="250" y="-11" type="curve" smooth="yes"/>
      <point x="193.333" y="-11"/>
      <point x="143.667" y="4.66667"/>
      <point x="101" y="36" type="curve"/>
      <point x="59.6667" y="69.3333"/>
      <point x="39" y="119"/>
      <point x="39" y="185" type="curve" smooth="yes"/>
      <point x="39" y="698" type="line"/>
      <point x="149" y="698" type="line"/>
      <point x="149" y="204" type="line" smooth="yes"/>
      <point x="149" y="167.333"/>
      <point x="159.667" y="140"/>
      <point x="181" y="122" type="curve" smooth="yes"/>
      <point x="196.333" y="108"/>
      <point x="219" y="101"/>
      <point x="249" y="101" type="curve" smooth="yes"/>
      <point x="278.333" y="101"/>
      <point x="301.667" y="109.667"/>
      <point x="319" y="127" type="curve" smooth="yes"/>
      <point x="337.667" y="144.333"/>
      <point x="349" y="172.667"/>
      <point x="349" y="206" type="curve" smooth="yes"/>
      <point x="349" y="698" type="line"/>
      <point x="459" y="698" type="line"/>
    </contour>
  </outline>
</glyph>
<glyph name="W" format="1">
  <advance width="740"/>
  <unicode hex="0057"/>
  <outline>
    <contour>
      <point x="409" y="698" type="line"/>
      <point x="515" y="252" type="line"/>
      <point x="590" y="698" type="line"/>
      <point x="717" y="698" type="line"/>
      <point x="582" y="0" type="line"/>
      <point x="458" y="0" type="line"/>
      <point x="369" y="353" type="line"/>
      <point x="282" y="0" type="line"/>
      <point x="154" y="0" type="line"/>
      <point x="20" y="698" type="line"/>
      <point x="141" y="698" type="line"/>
      <point x="224" y="252" type="line"/>
      <point x="330" y="698" type="line"/>
    </contour>
  </outline>
</glyph>
<glyph name="grave" format="1">
  <advance width="266"/>
  <unicode hex="0060"/>
  <outline>
    <contour>
      <point x="131" y="704" type="curve"/>
      <point x="161" y="587" type="line"/>
      <point x="117" y="587" type="line"/>
      <point x="59" y="663" type="line"/>
      <point x="41.6667" y="681.667"/>
      <point x="35.6667" y="718"/>
      <point x="65" y="734" type="curve" smooth="yes"/>
      <point x="91.6667" y="748.667"/>
      <point x="120.333" y="730.667"/>
    </contour>
  </outline>
</glyph>
<glyph name="a" format="1">
  <advance width="450"/>
  <unicode hex="0061"/>
  <outline>
    <contour>
      <point x="304" y="334" type="curve"/>
      <point x="304" y="376.667"/>
      <point x="297" y="395.333"/>
      <point x="285" y="406" type="curve" smooth="yes"/>
      <point x="267.667" y="422"/>
      <point x="239.667" y="433"/>
      <point x="197" y="433" type="curve"/>
      <point x="206" y="508" type="line"/>
      <point x="259.333" y="508"/>
      <point x="323" y="504"/>
      <point x="367" y="464" type="curve" smooth="yes"/>
      <point x="391" y="442.667"/>
      <point x="414" y="398"/>
      <point x="414" y="306" type="curve" smooth="yes"/>
      <point x="414" y="0" type="line"/>
      <point x="358.972" y="-7.86109"/>
      <point x="300.787" y="-11"/>
      <point x="234" y="-11" type="curve" smooth="yes"/>
      <point x="120.662" y="-11"/>
      <point x="29" y="27.937"/>
      <point x="29" y="155" type="curve" smooth="yes"/>
      <point x="29" y="252" type="line" smooth="yes"/>
      <point x="29" y="353.437"/>
      <point x="91.2121" y="400"/>
      <point x="164" y="400" type="curve" smooth="yes"/>
      <point x="214.543" y="400"/>
      <point x="274.489" y="376.342"/>
    </contour>
    <contour>
      <point x="304" y="252" type="line"/>
      <point x="292.494" y="259.67"/>
      <point x="240.871" y="287"/>
      <point x="195" y="287" type="curve" smooth="yes"/>
      <point x="165.083" y="287"/>
      <point x="140" y="275.617"/>
      <point x="140" y="238" type="curve" smooth="yes"/>
      <point x="140" y="173" type="line" smooth="yes"/>
      <point x="140" y="123.381"/>
      <point x="152.204" y="90"/>
      <point x="243" y="90" type="curve" smooth="yes"/>
      <point x="259.444" y="90"/>
      <point x="304.66" y="94.4445"/>
      <point x="304" y="94" type="curve"/>
    </contour>
  </outline>
</glyph>
<glyph name="c" format="1">
  <advance width="384"/>
  <unicode hex="0063"/>
  <outline>
    <contour>
      <point x="326" y="392" type="line"/>
      <point x="291.333" y="408"/>
      <point x="247.667" y="419.667"/>
      <point x="209" y="413" type="curve" smooth="yes"/>
      <point x="186.333" y="409"/>
      <point x="165" y="398.667"/>
      <point x="153" y="380" type="curve"/>
      <point x="146.333" y="366.667"/>
      <point x="140" y="351"/>
      <point x="140" y="331" type="curve" smooth="yes"/>
      <point x="140" y="174" type="line" smooth="yes"/>
      <point x="140" y="112.667"/>
      <point x="182.667" y="84"/>
      <point x="244" y="84" type="curve"/>
      <point x="286.66" y="83.7778"/>
      <point x="334.105" y="94.2222"/>
      <point x="333" y="94" type="curve"/>
      <point x="353" y="5" type="line"/>
      <point x="287.667" y="-12.3333"/>
      <point x="213.667" y="-20.3333"/>
      <point x="143" y="1" type="curve"/>
      <point x="75" y="23.6667"/>
      <point x="31" y="75.6667"/>
      <point x="31" y="173" type="curve" smooth="yes"/>
      <point x="31" y="319" type="line"/>
      <point x="33.6667" y="363"/>
      <point x="40.3334" y="395"/>
      <point x="59" y="427" type="curve" smooth="yes"/>
      <point x="85.6667" y="471"/>
      <point x="123.667" y="495.667"/>
      <point x="169" y="505" type="curve" smooth="yes"/>
      <point x="229" y="518.333"/>
      <point x="293.667" y="503.667"/>
      <point x="351" y="477" type="curve"/>
    </contour>
  </outline>
</glyph>
<glyph name="f" format="1">
  <advance width="279"/>
  <unicode hex="0066"/>
  <outline>
    <contour>
      <point x="232" y="608" type="line"/>
      <point x="221" y="610"/>
      <point x="206" y="614"/>
      <point x="193" y="614" type="curve" smooth="yes"/>
      <point x="167" y="614"/>
      <point x="154" y="596"/>
      <point x="154" y="560" type="curve" smooth="yes"/>
      <point x="154" y="501" type="line"/>
      <point x="241" y="501" type="line"/>
      <point x="217" y="397" type="line"/>
      <point x="154" y="397" type="line"/>
      <point x="154" y="0" type="line"/>
      <point x="40" y="0" type="line"/>
      <point x="40" y="550" type="line" smooth="yes"/>
      <point x="40" y="662"/>
      <point x="108" y="713"/>
      <point x="188" y="713" type="curve" smooth="yes"/>
      <point x="206" y="713"/>
      <point x="231" y="711"/>
      <point x="250" y="708" type="curve"/>
    </contour>
  </outline>
</glyph>
<glyph name="g" format="1">
  <advance width="442"/>
  <unicode hex="0067"/>
  <outline>
    <contour>
      <point x="402" y="-64" type="line" smooth="yes"/>
      <point x="402" y="-169.333"/>
      <point x="340.667" y="-210"/>
      <point x="246" y="-210" type="curve"/>
      <point x="219" y="-124" type="line"/>
      <point x="251.917" y="-124"/>
      <point x="292" y="-106.183"/>
      <point x="292" y="-53" type="curve" smooth="yes"/>
      <point x="292" y="12" type="line"/>
      <point x="269.598" y="-2.25562"/>
      <point x="234.921" y="-12"/>
      <point x="202" y="-12" type="curve" smooth="yes"/>
      <point x="91.3333" y="-12"/>
      <point x="32" y="53.3333"/>
      <point x="32" y="176" type="curve" smooth="yes"/>
      <point x="32" y="345" type="line" smooth="yes"/>
      <point x="32" y="446.333"/>
      <point x="87.3333" y="509"/>
      <point x="190" y="509" type="curve" smooth="yes"/>
      <point x="227.489" y="509"/>
      <point x="262.077" y="498.944"/>
      <point x="292" y="477" type="curve"/>
      <point x="292" y="499" type="line"/>
      <point x="402" y="499" type="line"/>
    </contour>
    <contour>
      <point x="292" y="386" type="line"/>
      <point x="292.917" y="385"/>
      <point x="249" y="410"/>
      <point x="216" y="410" type="curve" smooth="yes"/>
      <point x="178" y="410"/>
      <point x="142" y="393.317"/>
      <point x="142" y="337" type="curve" smooth="yes"/>
      <point x="142" y="159" type="line" smooth="yes"/>
      <point x="142" y="120.333"/>
      <point x="164" y="86"/>
      <point x="211" y="88" type="curve" smooth="yes"/>
      <point x="266" y="90"/>
      <point x="292" y="117.163"/>
      <point x="292" y="139" type="curve" smooth="yes"/>
    </contour>
  </outline>
</glyph>
<glyph name="m" format="1">
  <advance width="719"/>
  <unicode hex="006D"/>
  <outline>
    <contour>
      <point x="572" y="341" type="line" smooth="yes"/>
      <point x="572" y="380.717"/>
      <point x="536.55" y="408"/>
      <point x="494" y="408" type="curve" smooth="yes"/>
      <point x="476.667" y="408"/>
      <point x="442.667" y="400"/>
      <point x="412" y="384" type="curve"/>
      <point x="414.667" y="372"/>
      <point x="415" y="358.667"/>
      <point x="415" y="344" type="curve" smooth="yes"/>
      <point x="415" y="0" type="line"/>
      <point x="305" y="0" type="line"/>
      <point x="305" y="341" type="line" smooth="yes"/>
      <point x="305" y="380.717"/>
      <point x="271.567" y="408"/>
      <point x="229" y="408" type="curve" smooth="yes"/>
      <point x="206.333" y="408"/>
      <point x="179.667" y="400"/>
      <point x="149" y="384" type="curve"/>
      <point x="149" y="0" type="line"/>
      <point x="39" y="0" type="line"/>
      <point x="39" y="499" type="line"/>
      <point x="149" y="499" type="line"/>
      <point x="149" y="475" type="line"/>
      <point x="165" y="485.667"/>
      <point x="206.667" y="507"/>
      <point x="248" y="507" type="curve" smooth="yes"/>
      <point x="294.667" y="507"/>
      <point x="343.667" y="495"/>
      <point x="377" y="459" type="curve"/>
      <point x="411.47" y="482.698"/>
      <point x="471.654" y="507"/>
      <point x="514" y="507" type="curve" smooth="yes"/>
      <point x="592.823" y="507"/>
      <point x="682" y="472.026"/>
      <point x="682" y="344" type="curve" smooth="yes"/>
      <point x="682" y="0" type="line"/>
      <point x="572" y="0" type="line"/>
    </contour>
  </outline>
</glyph>
<glyph name="p" format="1">
  <advance width="443"/>
  <unicode hex="0070"/>
  <outline>
    <contour>
      <point x="409" y="176" type="line" smooth="yes"/>
      <point x="409" y="53.3333"/>
      <point x="350.667" y="-12"/>
      <point x="240" y="-12" type="curve" smooth="yes"/>
      <point x="207.325" y="-12"/>
      <point x="173.781" y="-1.87227"/>
      <point x="150" y="12" type="curve"/>
      <point x="150" y="-213" type="line"/>
      <point x="40" y="-191" type="line"/>
      <point x="40" y="499" type="line"/>
      <point x="150" y="499" type="line"/>
      <point x="150" y="477" type="line"/>
      <point x="162.642" y="489.642"/>
      <point x="213.936" y="509"/>
      <point x="252" y="509" type="curve" smooth="yes"/>
      <point x="353.333" y="509"/>
      <point x="409" y="446.333"/>
      <point x="409" y="345" type="curve" smooth="yes"/>
    </contour>
    <contour>
      <point x="299" y="337" type="line" smooth="yes"/>
      <point x="299" y="393.317"/>
      <point x="263.417" y="410"/>
      <point x="226" y="410" type="curve"/>
      <point x="193.167" y="411"/>
      <point x="149.083" y="385"/>
      <point x="150" y="386" type="curve"/>
      <point x="150" y="139" type="line" smooth="yes"/>
      <point x="150" y="102.3"/>
      <point x="203.083" y="88"/>
      <point x="235" y="88" type="curve" smooth="yes"/>
      <point x="276.333" y="88"/>
      <point x="299" y="116.333"/>
      <point x="299" y="159" type="curve" smooth="yes"/>
    </contour>
  </outline>
</glyph>
<glyph name="q" format="1">
  <advance width="442"/>
  <unicode hex="0071"/>
  <outline>
    <contour>
      <point x="292" y="13" type="line"/>
      <point x="267.833" y="-1.09718"/>
      <point x="233.633" y="-11"/>
      <point x="202" y="-11" type="curve" smooth="yes"/>
      <point x="91.3333" y="-11"/>
      <point x="32" y="54.6667"/>
      <point x="32" y="176" type="curve" smooth="yes"/>
      <point x="32" y="345" type="line" smooth="yes"/>
      <point x="32" y="447.667"/>
      <point x="88" y="510"/>
      <point x="192" y="510" type="curve" smooth="yes"/>
      <point x="226.835" y="510"/>
      <point x="262.601" y="498.559"/>
      <point x="292" y="477" type="curve"/>
      <point x="292" y="499" type="line"/>
      <point x="402" y="499" type="line"/>
      <point x="402" y="-212" type="line"/>
      <point x="292" y="-191" type="line"/>
    </contour>
    <contour>
      <point x="292" y="387" type="line"/>
      <point x="292.583" y="386"/>
      <point x="249.667" y="412"/>
      <point x="215" y="411" type="curve"/>
      <point x="179.833" y="411"/>
      <point x="142" y="394.317"/>
      <point x="142" y="338" type="curve" smooth="yes"/>
      <point x="142" y="161" type="line" smooth="yes"/>
      <point x="142" y="122.333"/>
      <point x="161.667" y="89"/>
      <point x="211" y="89" type="curve"/>
      <point x="266.018" y="91.6199"/>
      <point x="292" y="116.98"/>
      <point x="292" y="140" type="curve" smooth="yes"/>
    </contour>
  </outline>
</glyph>
<glyph name="r" format="1">
  <advance width="373"/>
  <unicode hex="0072"/>
  <outline>
    <contour>
      <point x="331" y="409" type="line"/>
      <point x="331" y="409"/>
      <point x="315" y="416"/>
      <point x="279" y="416" type="curve" smooth="yes"/>
      <point x="235.146" y="416"/>
      <point x="190.546" y="407.784"/>
      <point x="149" y="388" type="curve"/>
      <point x="149" y="0" type="line"/>
      <point x="39" y="0" type="line"/>
      <point x="39" y="499" type="line"/>
      <point x="149" y="499" type="line"/>
      <point x="149" y="479" type="line"/>
      <point x="182.333" y="501.667"/>
      <point x="225.333" y="514"/>
      <point x="268" y="514" type="curve" smooth="yes"/>
      <point x="298.667" y="514"/>
      <point x="325.667" y="507"/>
      <point x="347" y="499" type="curve"/>
    </contour>
  </outline>
</glyph>
<glyph name="s" format="1">
  <advance width="426"/>
  <unicode hex="0073"/>
  <outline>
    <contour>
      <point x="314" y="385" type="line"/>
      <point x="291.877" y="397.067"/>
      <point x="260.398" y="405"/>
      <point x="227" y="405" type="curve" smooth="yes"/>
      <point x="204" y="405"/>
      <point x="164" y="401"/>
      <point x="164" y="370" type="curve" smooth="yes"/>
      <point x="164" y="355.333"/>
      <point x="182.333" y="341.667"/>
      <point x="205" y="331" type="curve" smooth="yes"/>
      <point x="221" y="323"/>
      <point x="239.333" y="315.667"/>
      <point x="258" y="309" type="curve" smooth="yes"/>
      <point x="331" y="283"/>
      <point x="397" y="229"/>
      <point x="397" y="145" type="curve" smooth="yes"/>
      <point x="397" y="91.6667"/>
      <point x="372.983" y="49.4872"/>
      <point x="335" y="21" type="curve" smooth="yes"/>
      <point x="303.628" y="-2.5287"/>
      <point x="260.667" y="-15"/>
      <point x="214" y="-15" type="curve" smooth="yes"/>
      <point x="174" y="-15"/>
      <point x="138.667" y="-5.33333"/>
      <point x="112" y="8" type="curve" smooth="yes"/>
      <point x="70.6667" y="28"/>
      <point x="41.6667" y="54"/>
      <point x="27" y="70" type="curve"/>
      <point x="91" y="137" type="line"/>
      <point x="123" y="109"/>
      <point x="164" y="88"/>
      <point x="207" y="88" type="curve" smooth="yes"/>
      <point x="239" y="88"/>
      <point x="280" y="103"/>
      <point x="280" y="141" type="curve" smooth="yes"/>
      <point x="280" y="159"/>
      <point x="269" y="173"/>
      <point x="259" y="183" type="curve" smooth="yes"/>
      <point x="244.333" y="197.667"/>
      <point x="223" y="205.667"/>
      <point x="203" y="215" type="curve" smooth="yes"/>
      <point x="177.667" y="225.667"/>
      <point x="146.793" y="235.784"/>
      <point x="118" y="254" type="curve" smooth="yes"/>
      <point x="81.4363" y="277.132"/>
      <point x="51" y="312.667"/>
      <point x="51" y="370" type="curve" smooth="yes"/>
      <point x="51" y="422"/>
      <point x="78" y="460"/>
      <point x="118" y="484" type="curve" smooth="yes"/>
      <point x="150" y="502.667"/>
      <point x="189" y="512"/>
      <point x="229" y="512" type="curve" smooth="yes"/>
      <point x="269.973" y="512"/>
      <point x="313.825" y="500.123"/>
      <point x="348" y="476" type="curve"/>
    </contour>
  </outline>
</glyph>
<glyph name="y" format="1">
  <advance width="482"/>
  <unicode hex="0079"/>
  <outline>
    <contour>
      <point x="453" y="433" type="line"/>
      <point x="414.333" y="425"/>
      <point x="406" y="395.333"/>
      <point x="406" y="362" type="curve" smooth="yes"/>
      <point x="406" y="-59" type="line" smooth="yes"/>
      <point x="406" y="-154"/>
      <point x="351" y="-213"/>
      <point x="255" y="-213" type="curve"/>
      <point x="226" y="-124" type="line"/>
      <point x="267" y="-124"/>
      <point x="296" y="-87"/>
      <point x="296" y="-48" type="curve" smooth="yes"/>
      <point x="296" y="28" type="line"/>
      <point x="282.667" y="13.3333"/>
      <point x="238.667" y="-6"/>
      <point x="196" y="-6" type="curve" smooth="yes"/>
      <point x="116.208" y="-6"/>
      <point x="36" y="29.6883"/>
      <point x="36" y="158" type="curve" smooth="yes"/>
      <point x="36" y="501" type="line"/>
      <point x="147" y="501" type="line"/>
      <point x="147" y="161" type="line" smooth="yes"/>
      <point x="147" y="123.533"/>
      <point x="174.95" y="94"/>
      <point x="216" y="94" type="curve" smooth="yes"/>
      <point x="261.683" y="94"/>
      <point x="296" y="130.333"/>
      <point x="296" y="176" type="curve" smooth="yes"/>
      <point x="296" y="392" type="line" smooth="yes"/>
      <point x="296" y="447.267"/>
      <point x="328.9" y="510"/>
      <point x="419" y="510" type="curve"/>
    </contour>
  </outline>
</glyph>
<glyph name="bar" format="1">
  <advance width="195"/>
  <unicode hex="007C"/>
  <outline>
    <contour>
      <point x="42" y="-114" type="line"/>
      <point x="42" y="816" type="line"/>
      <point x="152" y="816" type="line"/>
      <point x="152" y="-114" type="line"/>
    </contour>
  </outline>
</glyph>
<glyph name="cent" format="1">
  <advance width="384"/>
  <unicode hex="00A2"/>
  <outline>
    <component base="c"/>
    <contour>
      <point x="193" y="-113" type="line"/>
      <point x="193" y="623" type="line"/>
      <point x="279" y="623" type="line"/>
      <point x="279" y="-113" type="line"/>
    </contour>
  </outline>
</glyph>
<glyph name="sterling" format="1">
  <advance width="432"/>
  <unicode hex="00A3"/>
  <outline>
    <contour>
      <point x="135" y="100" type="line" smooth="yes"/>
      <point x="195" y="100"/>
      <point x="227" y="150"/>
      <point x="223" y="212" type="curve" smooth="yes"/>
      <point x="220" y="250"/>
      <point x="202" y="288"/>
      <point x="182" y="323" type="curve" smooth="yes"/>
      <point x="172" y="340" type="line"/>
      <point x="36" y="340" type="line"/>
      <point x="36" y="443" type="line"/>
      <point x="105" y="443" type="line"/>
      <point x="93" y="463" type="line" smooth="yes"/>
      <point x="73" y="496"/>
      <point x="59" y="532"/>
      <point x="61" y="569" type="curve" smooth="yes"/>
      <point x="65" y="661"/>
      <point x="148" y="708"/>
      <point x="238" y="708" type="curve" smooth="yes"/>
      <point x="273" y="708"/>
      <point x="329" y="695"/>
      <point x="362" y="672" type="curve"/>
      <point x="328" y="582" type="line"/>
      <point x="303" y="594"/>
      <point x="272" y="603"/>
      <point x="233" y="603" type="curve" smooth="yes"/>
      <point x="209" y="603"/>
      <point x="184" y="592"/>
      <point x="179" y="565" type="curve" smooth="yes"/>
      <point x="175" y="543"/>
      <point x="189" y="514"/>
      <point x="216" y="476" type="curve" smooth="yes"/>
      <point x="239" y="443" type="line"/>
      <point x="396" y="443" type="line"/>
      <point x="396" y="340" type="line"/>
      <point x="306" y="340" type="line"/>
      <point x="320" y="311" type="line" smooth="yes"/>
      <point x="334" y="282"/>
      <point x="342" y="248"/>
      <point x="341" y="215" type="curve" smooth="yes"/>
      <point x="340" y="176"/>
      <point x="324" y="126"/>
      <point x="292" y="100" type="curve"/>
      <point x="396" y="100" type="line"/>
      <point x="396" y="0" type="line"/>
      <point x="36" y="0" type="line"/>
      <point x="36" y="100" type="line"/>
    </contour>
  </outline>
</glyph>
<glyph name="copyright" format="1">
  <advance width="783"/>
  <unicode hex="00A9"/>
  <outline>
    <contour>
      <point x="750" y="185" type="line" smooth="yes"/>
      <point x="750" y="0.305618"/>
      <point x="600.67" y="-94"/>
      <point x="391" y="-94" type="curve" smooth="yes"/>
      <point x="181.33" y="-94"/>
      <point x="32" y="0.305611"/>
      <point x="32" y="185" type="curve" smooth="yes"/>
      <point x="32" y="326" type="line" smooth="yes"/>
      <point x="32" y="509.767"/>
      <point x="181.367" y="603"/>
      <point x="391" y="603" type="curve" smooth="yes"/>
      <point x="600.633" y="603"/>
      <point x="750" y="509.767"/>
      <point x="750" y="326" type="curve" smooth="yes"/>
    </contour>
    <contour>
      <point x="648" y="289" type="line"/>
      <point x="647.083" y="469.083"/>
      <point x="575.719" y="503"/>
      <point x="391" y="503" type="curve" smooth="yes"/>
      <point x="207.95" y="503"/>
      <point x="134" y="467.026"/>
      <point x="134" y="289" type="curve" smooth="yes"/>
      <point x="134" y="222" type="line" smooth="yes"/>
      <point x="134" y="43.3075"/>
      <point x="207.947" y="7"/>
      <point x="391" y="7" type="curve" smooth="yes"/>
      <point x="574.953" y="7"/>
      <point x="648" y="43.3178"/>
      <point x="648" y="222" type="curve" smooth="yes"/>
    </contour>
    <contour>
      <point x="518" y="331" type="line"/>
      <point x="519" y="330.583"/>
      <point x="469.01" y="350"/>
      <point x="422" y="350" type="curve" smooth="yes"/>
      <point x="387.337" y="350"/>
      <point x="361.71" y="342.373"/>
      <point x="345" y="327" type="curve" smooth="yes"/>
      <point x="328.348" y="311.68"/>
      <point x="320" y="284.333"/>
      <point x="320" y="255" type="curve" smooth="yes"/>
      <point x="320" y="224.333"/>
      <point x="328.71" y="196.016"/>
      <point x="344" y="182" type="curve" smooth="yes"/>
      <point x="360.738" y="166.657"/>
      <point x="384" y="163"/>
      <point x="408" y="163" type="curve" smooth="yes"/>
      <point x="470.889" y="163"/>
      <point x="555.111" y="195"/>
      <point x="554" y="195" type="curve"/>
      <point x="571" y="91" type="line"/>
      <point x="515" y="69.6667"/>
      <point x="459" y="56"/>
      <point x="407" y="56" type="curve" smooth="yes"/>
      <point x="352.333" y="56"/>
      <point x="303.667" y="70.6667"/>
      <point x="269" y="100" type="curve" smooth="yes"/>
      <point x="231.667" y="132"/>
      <point x="210" y="179.667"/>
      <point x="210" y="249" type="curve" smooth="yes"/>
      <point x="210" y="331.72"/>
      <point x="237.645" y="384.756"/>
      <point x="278.519" y="416.266" type="curve" smooth="yes"/>
      <point x="314.402" y="443.929"/>
      <point x="360.486" y="455"/>
      <point x="407" y="455" type="curve" smooth="yes"/>
      <point x="456.347" y="455"/>
      <point x="506" y="441"/>
      <point x="546" y="421" type="curve"/>
    </contour>
  </outline>
</glyph>
<glyph name="ordfeminine" format="1">
  <advance width="329"/>
  <unicode hex="00AA"/>
  <outline>
    <contour>
      <point x="295" y="391" type="curve"/>
      <point x="251" y="384.333"/>
      <point x="208.667" y="378"/>
      <point x="174" y="378" type="curve" smooth="yes"/>
      <point x="86.2078" y="378"/>
      <point x="26" y="405.688"/>
      <point x="26" y="518" type="curve"/>
      <point x="27.9461" y="580.276"/>
      <point x="63.9431" y="631"/>
      <point x="131" y="631" type="curve" smooth="yes"/>
      <point x="155" y="631"/>
      <point x="181.667" y="623.667"/>
      <point x="207" y="609" type="curve"/>
      <point x="207" y="645.066"/>
      <point x="197.127" y="650"/>
      <point x="161" y="650" type="curve" smooth="yes"/>
      <point x="150.333" y="650"/>
      <point x="136.333" y="649.667"/>
      <point x="119" y="647" type="curve"/>
      <point x="129" y="708" type="line"/>
      <point x="165" y="713.333"/>
      <point x="217.667" y="713.667"/>
      <point x="251" y="687" type="curve" smooth="yes"/>
      <point x="284.333" y="661.667"/>
      <point x="295" y="616.667"/>
      <point x="295" y="554" type="curve"/>
      <point x="295" y="556.365"/>
      <point x="295" y="387.032"/>
    </contour>
    <contour>
      <point x="207" y="533" type="line"/>
      <point x="191" y="543.667"/>
      <point x="167.333" y="555"/>
      <point x="146" y="555" type="curve" smooth="yes"/>
      <point x="120.433" y="555"/>
      <point x="109" y="533.15"/>
      <point x="109" y="507" type="curve"/>
      <point x="110.333" y="465.667"/>
      <point x="141.667" y="458"/>
      <point x="171" y="458" type="curve" smooth="yes"/>
      <point x="186.007" y="458"/>
      <point x="196.229" y="460"/>
      <point x="207" y="460" type="curve"/>
    </contour>
  </outline>
</glyph>
<glyph name="plusminus" format="1">
  <advance width="390"/>
  <unicode hex="00B1"/>
  <outline>
    <contour>
      <point x="35" y="349" type="line"/>
      <point x="35" y="454" type="line"/>
      <point x="139" y="454" type="line"/>
      <point x="139" y="564" type="line"/>
      <point x="250" y="564" type="line"/>
      <point x="250" y="454" type="line"/>
      <point x="355" y="454" type="line"/>
      <point x="355" y="349" type="line"/>
      <point x="250" y="349" type="line"/>
      <point x="250" y="246" type="line"/>
      <point x="354" y="246" type="line"/>
      <point x="354" y="146" type="line"/>
      <point x="34" y="146" type="line"/>
      <point x="34" y="246" type="line"/>
      <point x="139" y="246" type="line"/>
      <point x="139" y="349" type="line"/>
    </contour>
  </outline>
</glyph>
<glyph name="mu" format="1">
  <advance width="465"/>
  <unicode hex="00B5"/>
  <outline>
    <contour>
      <point x="409" y="113" type="line" smooth="yes"/>
      <point x="409" y="48"/>
      <point x="434" y="26"/>
      <point x="432" y="25" type="curve"/>
      <point x="337" y="-1" type="line"/>
      <point x="326" y="4"/>
      <point x="311" y="26"/>
      <point x="311" y="25" type="curve"/>
      <point x="305" y="8"/>
      <point x="267" y="-9"/>
      <point x="233" y="-9" type="curve" smooth="yes"/>
      <point x="209" y="-9"/>
      <point x="162" y="4"/>
      <point x="150" y="29" type="curve"/>
      <point x="150" y="-216" type="line"/>
      <point x="40" y="-192" type="line"/>
      <point x="40" y="501" type="line"/>
      <point x="150" y="501" type="line"/>
      <point x="150" y="153" type="line" smooth="yes"/>
      <point x="150" y="112"/>
      <point x="194" y="88"/>
      <point x="228" y="92" type="curve" smooth="yes"/>
      <point x="276" y="96"/>
      <point x="298" y="121"/>
      <point x="298" y="159" type="curve" smooth="yes"/>
      <point x="298" y="498" type="line"/>
      <point x="409" y="511" type="line"/>
    </contour>
  </outline>
</glyph>
<glyph name="cedilla" format="1">
  <advance width="266"/>
  <unicode hex="00B8"/>
  <outline>
    <contour>
      <point x="172" y="0" type="line"/>
      <point x="148" y="-42" type="line"/>
      <point x="166.667" y="-40.6667"/>
      <point x="171" y="-42"/>
      <point x="175" y="-42" type="curve" smooth="yes"/>
      <point x="236.533" y="-42"/>
      <point x="270" y="-85.85"/>
      <point x="270" y="-133" type="curve" smooth="yes"/>
      <point x="270" y="-193"/>
      <point x="235.667" y="-235"/>
      <point x="153" y="-235" type="curve" smooth="yes"/>
      <point x="106.25" y="-235"/>
      <point x="52" y="-223"/>
      <point x="51" y="-223" type="curve"/>
      <point x="56.9911" y="-195.042"/>
      <point x="59.8518" y="-187.037"/>
      <point x="64" y="-158" type="curve"/>
      <point x="64.3333" y="-158"/>
      <point x="123.167" y="-168"/>
      <point x="164" y="-168" type="curve" smooth="yes"/>
      <point x="191.8" y="-168"/>
      <point x="203" y="-154.4"/>
      <point x="203" y="-138" type="curve" smooth="yes"/>
      <point x="203" y="-119.333"/>
      <point x="193.333" y="-107"/>
      <point x="168" y="-107" type="curve" smooth="yes"/>
      <point x="148" y="-107"/>
      <point x="119.333" y="-111.333"/>
      <point x="78" y="-114" type="curve"/>
      <point x="60" y="-75" type="line"/>
      <point x="106" y="0" type="line"/>
    </contour>
  </outline>
</glyph>
<glyph name="Thorn" format="1">
  <advance width="467"/>
  <unicode hex="00DE"/>
  <outline>
    <contour>
      <point x="435" y="291" type="line" smooth="yes"/>
      <point x="435" y="193"/>
      <point x="393" y="141"/>
      <point x="322" y="119" type="curve" smooth="yes"/>
      <point x="270" y="101"/>
      <point x="210" y="103"/>
      <point x="152" y="114" type="curve"/>
      <point x="152" y="0" type="line"/>
      <point x="41" y="0" type="line"/>
      <point x="41" y="700" type="line"/>
      <point x="152" y="700" type="line"/>
      <point x="152" y="610" type="line"/>
      <point x="184" y="620"/>
      <point x="216" y="628"/>
      <point x="250" y="628" type="curve" smooth="yes"/>
      <point x="368" y="628"/>
      <point x="435" y="547"/>
      <point x="435" y="436" type="curve" smooth="yes"/>
    </contour>
    <contour>
      <point x="238" y="534" type="curve" smooth="yes"/>
      <point x="211" y="534"/>
      <point x="177" y="525"/>
      <point x="152" y="516" type="curve"/>
      <point x="152" y="207" type="line"/>
      <point x="189" y="199"/>
      <point x="238" y="198"/>
      <point x="274" y="209" type="curve" smooth="yes"/>
      <point x="314" y="221"/>
      <point x="327" y="250"/>
      <point x="327" y="291" type="curve" smooth="yes"/>
      <point x="326" y="450" type="line" smooth="yes"/>
      <point x="326" y="502"/>
      <point x="291" y="534"/>
    </contour>
  </outline>
</glyph>
<glyph name="germandbls" format="1">
  <advance width="515"/>
  <unicode hex="00DF"/>
  <outline>
    <contour>
      <point x="150" y="0" type="line"/>
      <point x="114" y="0"/>
      <point x="76" y="0"/>
      <point x="40" y="0" type="curve"/>
      <point x="40" y="536" type="line" smooth="yes"/>
      <point x="40" y="651.431"/>
      <point x="121" y="700"/>
      <point x="201" y="700" type="curve" smooth="yes"/>
      <point x="268" y="700"/>
      <point x="335" y="667"/>
      <point x="354" y="610" type="curve" smooth="yes"/>
      <point x="368" y="568"/>
      <point x="362.333" y="514.667"/>
      <point x="325" y="476" type="curve"/>
      <point x="325.083" y="476"/>
      <point x="305.667" y="476"/>
      <point x="305" y="476" type="curve"/>
      <point x="298.333" y="465.333"/>
      <point x="294" y="454.667"/>
      <point x="294" y="444" type="curve" smooth="yes"/>
      <point x="294" y="394.094"/>
      <point x="378.619" y="344.361"/>
      <point x="429" y="288" type="curve" smooth="yes"/>
      <point x="462.047" y="251.031"/>
      <point x="487" y="204.473"/>
      <point x="487" y="148" type="curve" smooth="yes"/>
      <point x="487" y="53.0333"/>
      <point x="409.65" y="-12"/>
      <point x="313" y="-12" type="curve" smooth="yes"/>
      <point x="258.727" y="-12"/>
      <point x="208.821" y="7.14157"/>
      <point x="171" y="37" type="curve"/>
      <point x="213" y="123" type="line"/>
      <point x="250" y="96"/>
      <point x="283.042" y="92"/>
      <point x="310" y="92" type="curve" smooth="yes"/>
      <point x="342.117" y="92"/>
      <point x="371" y="116.033"/>
      <point x="371" y="152" type="curve" smooth="yes"/>
      <point x="371" y="177.524"/>
      <point x="356.715" y="209.303"/>
      <point x="325" y="243" type="curve" smooth="yes"/>
      <point x="271.47" y="299.206"/>
      <point x="181" y="356.903"/>
      <point x="181" y="439" type="curve" smooth="yes"/>
      <point x="181" y="460.333"/>
      <point x="187.333" y="482"/>
      <point x="202" y="506" type="curve"/>
      <point x="235.333" y="506"/>
      <point x="253" y="532.333"/>
      <point x="253" y="555" type="curve" smooth="yes"/>
      <point x="253" y="576.717"/>
      <point x="240.017" y="595"/>
      <point x="210" y="595" type="curve" smooth="yes"/>
      <point x="170" y="595"/>
      <point x="150" y="565"/>
      <point x="150" y="505" type="curve" smooth="yes"/>
    </contour>
  </outline>
</glyph>
<glyph name="ae" format="1">
  <advance width="698"/>
  <unicode hex="00E6"/>
  <outline>
    <contour>
      <point x="418" y="150" type="line" smooth="yes"/>
      <point x="418" y="117.004"/>
      <point x="435.996" y="91"/>
      <point x="475" y="91" type="curve" smooth="yes"/>
      <point x="509.667" y="91"/>
      <point x="558.333" y="109.667"/>
      <point x="601" y="131" type="curve"/>
      <point x="641" y="36" type="line"/>
      <point x="595.667" y="6.66667"/>
      <point x="547" y="-12"/>
      <point x="487" y="-12" type="curve" smooth="yes"/>
      <point x="453.667" y="-12"/>
      <point x="415.667" y="-0.333333"/>
      <point x="401" y="13" type="curve"/>
      <point x="401" y="-2" type="line"/>
      <point x="349.54" y="-8.4325"/>
      <point x="294.276" y="-11"/>
      <point x="234" y="-11" type="curve" smooth="yes"/>
      <point x="121.085" y="-11"/>
      <point x="34.0397" y="28.1654"/>
      <point x="28" y="155" type="curve"/>
      <point x="28" y="252" type="line" smooth="yes"/>
      <point x="28" y="353.437"/>
      <point x="90.2121" y="400"/>
      <point x="163" y="400" type="curve" smooth="yes"/>
      <point x="213.543" y="400"/>
      <point x="273.489" y="376.342"/>
      <point x="303" y="334" type="curve"/>
      <point x="303" y="408.802"/>
      <point x="274.086" y="430.998"/>
      <point x="196" y="433" type="curve"/>
      <point x="200" y="459.667"/>
      <point x="202.333" y="482.667"/>
      <point x="205" y="508" type="curve"/>
      <point x="255.48" y="508"/>
      <point x="316.379" y="504.69"/>
      <point x="360" y="469" type="curve"/>
      <point x="398.667" y="497"/>
      <point x="440.667" y="510"/>
      <point x="490" y="510" type="curve" smooth="yes"/>
      <point x="587.983" y="510"/>
      <point x="666" y="450.283"/>
      <point x="666" y="343" type="curve" smooth="yes"/>
      <point x="666" y="187" type="line"/>
      <point x="418" y="174" type="line"/>
    </contour>
    <contour>
      <point x="303" y="252" type="line"/>
      <point x="291.494" y="259.67"/>
      <point x="242.121" y="287"/>
      <point x="194" y="287" type="curve" smooth="yes"/>
      <point x="164.083" y="287"/>
      <point x="139" y="275.617"/>
      <point x="139" y="238" type="curve" smooth="yes"/>
      <point x="139" y="173" type="line" smooth="yes"/>
      <point x="139" y="123.381"/>
      <point x="152.333" y="90"/>
      <point x="243" y="90" type="curve"/>
      <point x="258.556" y="89.5556"/>
      <point x="303.444" y="94.4445"/>
      <point x="303" y="94" type="curve"/>
    </contour>
    <contour>
      <point x="556" y="323" type="line" smooth="yes"/>
      <point x="556" y="367.208"/>
      <point x="544.16" y="405"/>
      <point x="489" y="405" type="curve"/>
      <point x="440.14" y="402.286"/>
      <point x="418" y="380.158"/>
      <point x="418" y="326" type="curve" smooth="yes"/>
      <point x="418" y="275" type="line"/>
      <point x="556" y="284" type="line"/>
    </contour>
  </outline>
</glyph>
<glyph name="dcroat" format="1">
  <advance width="459"/>
  <unicode hex="0111"/>
  <outline>
    <contour>
      <point x="458" y="551" type="line"/>
      <point x="458" y="640" type="line"/>
      <point x="224" y="640" type="line"/>
      <point x="224" y="551" type="line"/>
    </contour>
    <contour>
      <point x="416" y="0" type="line"/>
      <point x="363" y="-8"/>
      <point x="304" y="-11"/>
      <point x="239" y="-11" type="curve" smooth="yes"/>
      <point x="183" y="-11"/>
      <point x="131" y="1"/>
      <point x="94" y="28" type="curve" smooth="yes"/>
      <point x="57" y="55"/>
      <point x="32" y="96"/>
      <point x="31" y="155" type="curve"/>
      <point x="31" y="359" type="line" smooth="yes"/>
      <point x="31" y="410"/>
      <point x="50" y="447"/>
      <point x="78" y="472" type="curve" smooth="yes"/>
      <point x="106" y="496"/>
      <point x="144" y="508"/>
      <point x="180" y="508" type="curve" smooth="yes"/>
      <point x="227" y="508"/>
      <point x="263" y="501"/>
      <point x="306" y="482" type="curve"/>
      <point x="306" y="698" type="line"/>
      <point x="416" y="698" type="line"/>
    </contour>
    <contour>
      <point x="306" y="370" type="line"/>
      <point x="294" y="377"/>
      <point x="259" y="394"/>
      <point x="212" y="394" type="curve" smooth="yes"/>
      <point x="197" y="394"/>
      <point x="180" y="391"/>
      <point x="166" y="384" type="curve"/>
      <point x="152" y="376"/>
      <point x="142" y="364"/>
      <point x="142" y="345" type="curve" smooth="yes"/>
      <point x="142" y="174" type="line" smooth="yes"/>
      <point x="142" y="149"/>
      <point x="145" y="128"/>
      <point x="160" y="114" type="curve" smooth="yes"/>
      <point x="175" y="100"/>
      <point x="201" y="91"/>
      <point x="246" y="91" type="curve" smooth="yes"/>
      <point x="250" y="91"/>
      <point x="255" y="91"/>
      <point x="262" y="91" type="curve" smooth="yes"/>
      <point x="269" y="91"/>
      <point x="275" y="91"/>
      <point x="282" y="92" type="curve" smooth="yes"/>
      <point x="289" y="93"/>
      <point x="297" y="93"/>
      <point x="306" y="94" type="curve"/>
    </contour>
  </outline>
</glyph>
<glyph name="dotlessi" format="1">
  <advance width="189"/>
  <unicode hex="0131"/>
  <outline>
    <contour>
      <point x="39" y="0" type="line"/>
      <point x="39" y="499" type="line"/>
      <point x="149" y="499" type="line"/>
      <point x="149" y="0" type="line"/>
    </contour>
  </outline>
</glyph>
<glyph name="IJ" format="1">
  <advance width="537"/>
  <unicode hex="0132"/>
  <outline>
    <contour>
      <point x="507" y="698" type="line"/>
      <point x="507" y="190" type="line" smooth="yes"/>
      <point x="507" y="61.9162"/>
      <point x="421.375" y="-11"/>
      <point x="298" y="-11" type="curve" smooth="yes"/>
      <point x="174.911" y="-11"/>
      <point x="87" y="56.6158"/>
      <point x="87" y="185" type="curve" smooth="yes"/>
      <point x="87" y="223" type="line"/>
      <point x="197" y="223" type="line"/>
      <point x="197" y="204" type="line" smooth="yes"/>
      <point x="197" y="138.673"/>
      <point x="231.899" y="101"/>
      <point x="297" y="101" type="curve" smooth="yes"/>
      <point x="359.783" y="101"/>
      <point x="397" y="144.411"/>
      <point x="397" y="206" type="curve" smooth="yes"/>
      <point x="397" y="592" type="line"/>
      <point x="338" y="593" type="line"/>
      <point x="338" y="698" type="line"/>
    </contour>
    <contour>
      <point x="197" y="698" type="line"/>
      <point x="197" y="320" type="line"/>
      <point x="87" y="320" type="line"/>
      <point x="87" y="591" type="line"/>
      <point x="23" y="593" type="line"/>
      <point x="23" y="698" type="line"/>
    </contour>
  </outline>
</glyph>
<glyph name="lslash" format="1">
  <advance width="376"/>
  <unicode hex="0142"/>
  <outline>
    <contour>
      <point x="124" y="403" type="line"/>
      <point x="124" y="698" type="line"/>
      <point x="234" y="698" type="line"/>
      <point x="234" y="453" type="line"/>
      <point x="314" y="488" type="line"/>
      <point x="350" y="409" type="line"/>
      <point x="234" y="356" type="line"/>
      <point x="234" y="0" type="line"/>
      <point x="124" y="0" type="line"/>
      <point x="124" y="306" type="line"/>
      <point x="59" y="277" type="line"/>
      <point x="22" y="358" type="line"/>
    </contour>
  </outline>
</glyph>
<glyph name="eng" format="1">
  <advance width="445"/>
  <unicode hex="014B"/>
  <outline>
    <contour>
      <point x="408" y="-44" type="line" smooth="yes"/>
      <point x="408" y="-100"/>
      <point x="390.333" y="-134.667"/>
      <point x="361" y="-160" type="curve"/>
      <point x="334.333" y="-185.333"/>
      <point x="285" y="-198"/>
      <point x="257" y="-198" type="curve"/>
      <point x="227" y="-109" type="line"/>
      <point x="249.667" y="-105"/>
      <point x="264.333" y="-99.3333"/>
      <point x="279" y="-86" type="curve"/>
      <point x="289.667" y="-74"/>
      <point x="298" y="-57"/>
      <point x="298" y="-33" type="curve" smooth="yes"/>
      <point x="298" y="343" type="line" smooth="yes"/>
      <point x="298" y="379.8"/>
      <point x="275.55" y="409"/>
      <point x="232" y="409" type="curve" smooth="yes"/>
      <point x="206.667" y="409"/>
      <point x="182.667" y="400.667"/>
      <point x="148" y="386" type="curve"/>
      <point x="148" y="0" type="line"/>
      <point x="39" y="0" type="line"/>
      <point x="39" y="499" type="line"/>
      <point x="148" y="499" type="line"/>
      <point x="148" y="476" type="line"/>
      <point x="165.333" y="488"/>
      <point x="206.667" y="509"/>
      <point x="248" y="509" type="curve" smooth="yes"/>
      <point x="327.792" y="509"/>
      <point x="408" y="473.312"/>
      <point x="408" y="345" type="curve" smooth="yes"/>
    </contour>
  </outline>
</glyph>
<glyph name="oe" format="1">
  <advance width="687"/>
  <unicode hex="0153"/>
  <outline>
    <contour>
      <point x="405" y="148" type="line" smooth="yes"/>
      <point x="405" y="112.866"/>
      <point x="424.169" y="90"/>
      <point x="465" y="90" type="curve" smooth="yes"/>
      <point x="499.667" y="90"/>
      <point x="548.667" y="108.667"/>
      <point x="590" y="130" type="curve"/>
      <point x="630" y="35" type="line"/>
      <point x="582" y="5.66667"/>
      <point x="518.667" y="-13"/>
      <point x="460" y="-13" type="curve" smooth="yes"/>
      <point x="407.156" y="-13"/>
      <point x="369.392" y="-1.34243"/>
      <point x="338" y="25" type="curve"/>
      <point x="308.667" y="1"/>
      <point x="268.667" y="-12"/>
      <point x="218" y="-12" type="curve" smooth="yes"/>
      <point x="87.4833" y="-12"/>
      <point x="31" y="81.9167"/>
      <point x="31" y="182" type="curve" smooth="yes"/>
      <point x="31" y="313" type="line" smooth="yes"/>
      <point x="31" y="441"/>
      <point x="98" y="509"/>
      <point x="218" y="509" type="curve" smooth="yes"/>
      <point x="272.667" y="509"/>
      <point x="315.333" y="493.333"/>
      <point x="346" y="464" type="curve"/>
      <point x="380.464" y="498.464"/>
      <point x="431.739" y="509"/>
      <point x="479" y="509" type="curve" smooth="yes"/>
      <point x="583.273" y="509"/>
      <point x="655" y="451.843"/>
      <point x="655" y="342" type="curve" smooth="yes"/>
      <point x="655" y="186" type="line"/>
      <point x="405" y="173" type="line"/>
    </contour>
    <contour>
      <point x="289" y="320" type="line" smooth="yes"/>
      <point x="289" y="366.667"/>
      <point x="263.333" y="399"/>
      <point x="218" y="399" type="curve" smooth="yes"/>
      <point x="168.667" y="399"/>
      <point x="142" y="370.667"/>
      <point x="142" y="320" type="curve" smooth="yes"/>
      <point x="142" y="174" type="line" smooth="yes"/>
      <point x="142" y="133.7"/>
      <point x="164.633" y="96"/>
      <point x="218" y="96" type="curve" smooth="yes"/>
      <point x="267.583" y="96"/>
      <point x="289" y="129.2"/>
      <point x="289" y="174" type="curve" smooth="yes"/>
    </contour>
    <contour>
      <point x="544" y="312" type="line" smooth="yes"/>
      <point x="544" y="360.252"/>
      <point x="535.294" y="404"/>
      <point x="478" y="404" type="curve" smooth="yes"/>
      <point x="418.35" y="404"/>
      <point x="405" y="367.826"/>
      <point x="405" y="313" type="curve" smooth="yes"/>
      <point x="405" y="274" type="line"/>
      <point x="544" y="283" type="line"/>
    </contour>
  </outline>
</glyph>
<glyph name="dotaccent" format="1">
  <advance width="266"/>
  <unicode hex="02D9"/>
  <outline>
    <contour>
      <point x="133" y="774" type="curve" smooth="yes"/>
      <point x="166.333" y="774"/>
      <point x="192" y="749.333"/>
      <point x="192" y="716" type="curve" smooth="yes"/>
      <point x="192" y="682.667"/>
      <point x="166.333" y="656"/>
      <point x="133" y="656" type="curve" smooth="yes"/>
      <point x="99.6667" y="656"/>
      <point x="73" y="682.667"/>
      <point x="73" y="716" type="curve" smooth="yes"/>
      <point x="73" y="749.333"/>
      <point x="99.6667" y="774"/>
    </contour>
  </outline>
</glyph>
<glyph name="ogonek" format="1">
  <advance width="266"/>
  <unicode hex="02DB"/>
  <outline>
    <contour>
      <point x="183" y="16" type="line"/>
      <point x="183" y="2" type="line"/>
      <point x="101" y="-123" type="line"/>
      <point x="90.6343" y="-141.658"/>
      <point x="100.043" y="-164.399"/>
      <point x="125" y="-154" type="curve" smooth="yes"/>
      <point x="153.007" y="-143.778"/>
      <point x="228.229" y="-117.556"/>
      <point x="228" y="-118" type="curve"/>
      <point x="253" y="-190" type="line"/>
      <point x="254.444" y="-189.778"/>
      <point x="167.889" y="-218.889"/>
      <point x="148" y="-224" type="curve" smooth="yes"/>
      <point x="57.1755" y="-250.713"/>
      <point x="-12.533" y="-174.768"/>
      <point x="38" y="-87" type="curve"/>
      <point x="93" y="3" type="line"/>
      <point x="93" y="7" type="line"/>
    </contour>
  </outline>
</glyph>
<glyph name="hungarumlaut" format="1">
  <advance width="266"/>
  <unicode hex="02DD"/>
  <outline>
    <contour>
      <point x="157" y="645" type="curve" smooth="yes"/>
      <point x="99" y="569" type="line"/>
      <point x="55" y="569" type="line"/>
      <point x="85" y="685" type="line" smooth="yes"/>
      <point x="91.9452" y="711.392"/>
      <point x="124.935" y="730.512"/>
      <point x="150" y="716" type="curve" smooth="yes"/>
      <point x="176.667" y="702.667"/>
      <point x="175.099" y="668.716"/>
    </contour>
    <contour>
      <point x="270" y="645" type="curve" smooth="yes"/>
      <point x="211" y="569" type="line"/>
      <point x="167" y="569" type="line"/>
      <point x="197" y="685" type="line" smooth="yes"/>
      <point x="203.667" y="711.667"/>
      <point x="234" y="730.667"/>
      <point x="262" y="716" type="curve" smooth="yes"/>
      <point x="288.667" y="702.667"/>
      <point x="288.667" y="667.667"/>
    </contour>
  </outline>
</glyph>
<glyph name="uni0306" format="1">
  <advance width="266"/>
  <unicode hex="0306"/>
  <outline>
    <contour>
      <point x="246" y="705" type="line"/>
      <point x="246" y="698" type="line" smooth="yes"/>
      <point x="246" y="667"/>
      <point x="233" y="639"/>
      <point x="213" y="619" type="curve" smooth="yes"/>
      <point x="192" y="598"/>
      <point x="164" y="585"/>
      <point x="133" y="585" type="curve" smooth="yes"/>
      <point x="102" y="585"/>
      <point x="73" y="598"/>
      <point x="53" y="619" type="curve"/>
      <point x="32" y="639"/>
      <point x="19" y="667"/>
      <point x="19" y="698" type="curve" smooth="yes"/>
      <point x="19" y="705" type="line"/>
      <point x="99" y="705" type="line"/>
      <point x="99" y="698" type="line" smooth="yes"/>
      <point x="99" y="681"/>
      <point x="114" y="664"/>
      <point x="133" y="664" type="curve" smooth="yes"/>
      <point x="152" y="664"/>
      <point x="167" y="681"/>
      <point x="167" y="698" type="curve" smooth="yes"/>
      <point x="167" y="705" type="line"/>
    </contour>
  </outline>
</glyph>
<glyph name="Theta" format="1">
  <advance width="493"/>
  <unicode hex="0398"/>
  <outline>
    <contour>
      <point x="36" y="506" type="line" smooth="yes"/>
      <point x="36" y="642"/>
      <point x="116" y="715"/>
      <point x="248" y="715" type="curve" smooth="yes"/>
      <point x="380" y="715"/>
      <point x="456" y="635.667"/>
      <point x="456" y="505" type="curve" smooth="yes"/>
      <point x="456" y="185" type="line" smooth="yes"/>
      <point x="456" y="62.8833"/>
      <point x="364.593" y="-11"/>
      <point x="247" y="-11" type="curve" smooth="yes"/>
      <point x="129" y="-11"/>
      <point x="36" y="56.1333"/>
      <point x="36" y="185" type="curve" smooth="yes"/>
    </contour>
    <contour>
      <point x="346" y="469" type="line" smooth="yes"/>
      <point x="346" y="556"/>
      <point x="317.861" y="599"/>
      <point x="246" y="599" type="curve" smooth="yes"/>
      <point x="171" y="599"/>
      <point x="146" y="556.667"/>
      <point x="146" y="470" type="curve" smooth="yes"/>
      <point x="146" y="400" type="line"/>
      <point x="346" y="400" type="line"/>
    </contour>
    <contour>
      <point x="246" y="101" type="curve" smooth="yes"/>
      <point x="308.167" y="101"/>
      <point x="346" y="143.2"/>
      <point x="346" y="206" type="curve" smooth="yes"/>
      <point x="346" y="302" type="line"/>
      <point x="146" y="302" type="line"/>
      <point x="146" y="204" type="line" smooth="yes"/>
      <point x="146" y="140.283"/>
      <point x="177.083" y="101"/>
    </contour>
  </outline>
</glyph>
<glyph name="Sigma" format="1">
  <advance width="523"/>
  <unicode hex="03A3"/>
  <outline>
    <contour>
      <point x="316" y="100" type="line" smooth="yes"/>
      <point x="368" y="100"/>
      <point x="397.667" y="108.667"/>
      <point x="411" y="150" type="curve"/>
      <point x="492" y="106" type="line"/>
      <point x="470.667" y="31.3333"/>
      <point x="426.667" y="0"/>
      <point x="348" y="0" type="curve" smooth="yes"/>
      <point x="25" y="0" type="line"/>
      <point x="250" y="384" type="line"/>
      <point x="41" y="703" type="line"/>
      <point x="469" y="703" type="line"/>
      <point x="435" y="588" type="line"/>
      <point x="244" y="588" type="line"/>
      <point x="381" y="386" type="line"/>
      <point x="212" y="100" type="line"/>
    </contour>
  </outline>
</glyph>
<glyph name="Psi" format="1">
  <advance width="592"/>
  <unicode hex="03A8"/>
  <outline>
    <contour>
      <point x="141" y="431" type="line" smooth="yes"/>
      <point x="141" y="340.333"/>
      <point x="157.333" y="306"/>
      <point x="220" y="306" type="curve" smooth="yes"/>
      <point x="238" y="306" type="line"/>
      <point x="238" y="698" type="line"/>
      <point x="348" y="698" type="line"/>
      <point x="348" y="306" type="line"/>
      <point x="371" y="306" type="line" smooth="yes"/>
      <point x="431" y="306"/>
      <point x="451" y="339.667"/>
      <point x="451" y="433" type="curve" smooth="yes"/>
      <point x="451" y="563" type="line" smooth="yes"/>
      <point x="451" y="634.675"/>
      <point x="407.563" y="663.219"/>
      <point x="404" y="665" type="curve"/>
      <point x="503" y="708" type="line"/>
      <point x="521.873" y="698.563"/>
      <point x="558" y="649.166"/>
      <point x="558" y="548" type="curve" smooth="yes"/>
      <point x="558" y="406" type="line" smooth="yes"/>
      <point x="558" y="284.667"/>
      <point x="499" y="213"/>
      <point x="371" y="213" type="curve" smooth="yes"/>
      <point x="348" y="213" type="line"/>
      <point x="348" y="0" type="line"/>
      <point x="238" y="0" type="line"/>
      <point x="238" y="213" type="line"/>
      <point x="220" y="213" type="line" smooth="yes"/>
      <point x="94.6667" y="213"/>
      <point x="32" y="284.667"/>
      <point x="32" y="406" type="curve" smooth="yes"/>
      <point x="32" y="698" type="line"/>
      <point x="141" y="698" type="line"/>
    </contour>
  </outline>
</glyph>
<glyph name="alpha" format="1">
  <advance width="442"/>
  <unicode hex="03B1"/>
  <outline>
    <contour>
      <point x="405" y="485" type="line"/>
      <point x="401" y="443.667"/>
      <point x="399" y="410.333"/>
      <point x="399" y="389" type="curve" smooth="yes"/>
      <point x="399" y="5" type="line"/>
      <point x="400.222" y="4.6667"/>
      <point x="272.111" y="-3.66663"/>
      <point x="196" y="-4" type="curve"/>
      <point x="73.0996" y="-4"/>
      <point x="33" y="76.7662"/>
      <point x="33" y="169" type="curve" smooth="yes"/>
      <point x="33" y="354" type="line"/>
      <point x="34.9953" y="469.726"/>
      <point x="97" y="506"/>
      <point x="175" y="506" type="curve" smooth="yes"/>
      <point x="234" y="506"/>
      <point x="281" y="491"/>
      <point x="297" y="485" type="curve"/>
      <point x="297" y="485"/>
      <point x="300.667" y="499.333"/>
      <point x="306" y="510" type="curve"/>
    </contour>
    <contour>
      <point x="143" y="168" type="line" smooth="yes"/>
      <point x="143" y="102.667"/>
      <point x="167" y="88"/>
      <point x="215" y="88" type="curve" smooth="yes"/>
      <point x="237.437" y="88"/>
      <point x="261.424" y="88.4424"/>
      <point x="287" y="91" type="curve"/>
      <point x="287" y="386" type="line"/>
      <point x="265.667" y="396.667"/>
      <point x="225.695" y="405.301"/>
      <point x="203" y="406" type="curve" smooth="yes"/>
      <point x="182.36" y="406.635"/>
      <point x="143" y="402.967"/>
      <point x="143" y="351" type="curve" smooth="yes"/>
    </contour>
  </outline>
</glyph>
<glyph name="beta" format="1">
  <advance width="600"/>
  <unicode hex="03B2"/>
  <outline>
    <contour>
      <point x="40" y="521" type="line" smooth="yes"/>
      <point x="40" y="617.367"/>
      <point x="104.883" y="702"/>
      <point x="209" y="702" type="curve" smooth="yes"/>
      <point x="299.667" y="702"/>
      <point x="352" y="640.667"/>
      <point x="352" y="554" type="curve" smooth="yes"/>
      <point x="352" y="492.667"/>
      <point x="321.333" y="437.667"/>
      <point x="264" y="403" type="curve"/>
      <point x="291" y="403" type="line" smooth="yes"/>
      <point x="353.679" y="403"/>
      <point x="414.886" y="369.942"/>
      <point x="414" y="268.945" type="curve" smooth="yes"/>
      <point x="413" y="155" type="line"/>
      <point x="409" y="24.9815"/>
      <point x="343.574" y="-11"/>
      <point x="241.269" y="-11" type="curve" smooth="yes"/>
      <point x="221" y="-11"/>
      <point x="174.645" y="-6"/>
      <point x="153" y="0" type="curve"/>
      <point x="153" y="-216" type="line"/>
      <point x="40" y="-191" type="line"/>
    </contour>
    <contour>
      <point x="153" y="537" type="curve" smooth="yes"/>
      <point x="153" y="406" type="line"/>
      <point x="180" y="431" type="line" smooth="yes"/>
      <point x="218.667" y="468.333"/>
      <point x="245" y="505.333"/>
      <point x="245" y="548" type="curve" smooth="yes"/>
      <point x="245" y="574.667"/>
      <point x="227.333" y="598"/>
      <point x="202" y="598" type="curve" smooth="yes"/>
      <point x="169.783" y="598"/>
      <point x="153" y="570.017"/>
    </contour>
    <contour>
      <point x="153" y="94" type="line"/>
      <point x="152.667" y="93.8889"/>
      <point x="193.667" y="91.1111"/>
      <point x="212" y="91" type="curve"/>
      <point x="287.766" y="91"/>
      <point x="299" y="122.489"/>
      <point x="299" y="173" type="curve" smooth="yes"/>
      <point x="299" y="274" type="line" smooth="yes"/>
      <point x="299" y="311.617"/>
      <point x="276.5" y="323"/>
      <point x="245" y="323" type="curve" smooth="yes"/>
      <point x="230.333" y="323"/>
      <point x="195.117" y="320.843"/>
      <point x="180" y="317.31" type="curve" smooth="yes"/>
      <point x="153" y="311" type="line"/>
    </contour>
  </outline>
</glyph>
<glyph name="gamma" format="1">
  <advance width="515"/>
  <unicode hex="03B3"/>
  <outline>
    <contour>
      <point x="491" y="466" type="line"/>
      <point x="455" y="450"/>
      <point x="432" y="436"/>
      <point x="412" y="372" type="curve" smooth="yes"/>
      <point x="281" y="-55" type="line" smooth="yes"/>
      <point x="255" y="-139"/>
      <point x="227" y="-202"/>
      <point x="119" y="-202" type="curve"/>
      <point x="88" y="-116" type="line"/>
      <point x="134" y="-116"/>
      <point x="149" y="-101"/>
      <point x="169" y="-51" type="curve"/>
      <point x="195" y="32" type="line"/>
      <point x="163" y="38"/>
      <point x="122" y="51"/>
      <point x="103" y="138" type="curve" smooth="yes"/>
      <point x="22" y="499" type="line"/>
      <point x="149" y="499" type="line"/>
      <point x="198" y="171" type="line" smooth="yes"/>
      <point x="204" y="132"/>
      <point x="227" y="140"/>
      <point x="227" y="140" type="curve"/>
      <point x="290" y="356" type="line"/>
      <point x="325" y="466"/>
      <point x="349" y="500"/>
      <point x="436" y="520" type="curve"/>
    </contour>
  </outline>
</glyph>
<glyph name="zeta" format="1">
  <advance width="438"/>
  <unicode hex="03B6"/>
  <outline>
    <contour>
      <point x="415" y="598" type="line"/>
      <point x="370.598" y="565.708"/>
      <point x="325.237" y="519.319"/>
      <point x="284" y="469" type="curve" smooth="yes"/>
      <point x="252.719" y="430.829"/>
      <point x="222.667" y="389"/>
      <point x="200" y="349" type="curve" smooth="yes"/>
      <point x="166.667" y="290.333"/>
      <point x="145" y="234"/>
      <point x="145" y="190" type="curve" smooth="yes"/>
      <point x="145" y="164.667"/>
      <point x="151.468" y="138.601"/>
      <point x="176" y="119" type="curve" smooth="yes"/>
      <point x="222.409" y="81.9198"/>
      <point x="323.411" y="91.1737"/>
      <point x="391" y="91" type="curve"/>
      <point x="391" y="-215" type="line"/>
      <point x="281" y="-190" type="line"/>
      <point x="281" y="-6" type="line"/>
      <point x="194.582" y="-11.4467"/>
      <point x="123" y="4.66667"/>
      <point x="79" y="50" type="curve"/>
      <point x="45.6667" y="82"/>
      <point x="28" y="128"/>
      <point x="28" y="184" type="curve" smooth="yes"/>
      <point x="28" y="245.333"/>
      <point x="48.6667" y="317.667"/>
      <point x="94" y="395" type="curve" smooth="yes"/>
      <point x="118" y="436.333"/>
      <point x="148.667" y="479.667"/>
      <point x="186" y="521" type="curve" smooth="yes"/>
      <point x="200.573" y="537.655"/>
      <point x="201.633" y="540.571"/>
      <point x="247" y="588" type="curve"/>
      <point x="97" y="588" type="line"/>
      <point x="97" y="698" type="line"/>
      <point x="368" y="698" type="line"/>
    </contour>
  </outline>
</glyph>
<glyph name="kappa" format="1">
  <advance width="474"/>
  <unicode hex="03BA"/>
  <outline>
    <contour>
      <point x="357" y="159" type="line"/>
      <point x="394.333" y="109.667"/>
      <point x="416.667" y="97.3333"/>
      <point x="442" y="96" type="curve"/>
      <point x="409" y="-1" type="line"/>
      <point x="386.333" y="-1"/>
      <point x="364.667" y="4.66667"/>
      <point x="344" y="16" type="curve"/>
      <point x="325.333" y="29.3333"/>
      <point x="308.667" y="42"/>
      <point x="298" y="54" type="curve" smooth="yes"/>
      <point x="288.667" y="66"/>
      <point x="275" y="84.6667"/>
      <point x="255" y="110" type="curve"/>
      <point x="177" y="219" type="line"/>
      <point x="150" y="195" type="line"/>
      <point x="150" y="0" type="line"/>
      <point x="40" y="0" type="line"/>
      <point x="40" y="510" type="line"/>
      <point x="150" y="498" type="line"/>
      <point x="150" y="333" type="line"/>
      <point x="304" y="499" type="line"/>
      <point x="440" y="499" type="line"/>
      <point x="258" y="300" type="line"/>
    </contour>
  </outline>
</glyph>
<glyph name="lambda" format="1">
  <advance width="516"/>
  <unicode hex="03BB"/>
  <outline>
    <contour>
      <point x="413" y="127" type="line"/>
      <point x="437.555" y="61.5199"/>
      <point x="456.184" y="51.4294"/>
      <point x="495" y="31" type="curve"/>
      <point x="495" y="31"/>
      <point x="481.333" y="19.3333"/>
      <point x="440" y="-22" type="curve"/>
      <point x="352.049" y="-2.01107"/>
      <point x="326.277" y="33.1206"/>
      <point x="292" y="142" type="curve"/>
      <point x="275.804" y="189.882"/>
      <point x="231.397" y="358.906"/>
      <point x="231" y="358" type="curve"/>
      <point x="231" y="358"/>
      <point x="225.333" y="356"/>
      <point x="224" y="352" type="curve" smooth="yes"/>
      <point x="223.521" y="347.416"/>
      <point x="150.09" y="-3.22654"/>
      <point x="151" y="-1" type="curve"/>
      <point x="24" y="-1" type="line"/>
      <point x="79.3578" y="184.844"/>
      <point x="108.218" y="290.697"/>
      <point x="128" y="354" type="curve" smooth="yes"/>
      <point x="156.277" y="440.851"/>
      <point x="163.482" y="447.482"/>
      <point x="193" y="477" type="curve"/>
      <point x="170" y="549" type="line"/>
      <point x="152.089" y="598.753"/>
      <point x="134.595" y="614"/>
      <point x="91" y="614" type="curve"/>
      <point x="122" y="700" type="line"/>
      <point x="242.261" y="700"/>
      <point x="264.365" y="617.891"/>
      <point x="283" y="554" type="curve"/>
    </contour>
  </outline>
</glyph>
<glyph name="xi" format="1">
  <advance width="437"/>
  <unicode hex="03BE"/>
  <outline>
    <contour>
      <point x="371" y="586" type="line"/>
      <point x="255.759" y="586" type="line" smooth="yes"/>
      <point x="217.868" y="586"/>
      <point x="196" y="558.293"/>
      <point x="196" y="529" type="curve" smooth="yes"/>
      <point x="196" y="477.216"/>
      <point x="240.916" y="437.785"/>
      <point x="315.122" y="410.404" type="curve" smooth="yes"/>
      <point x="365" y="392" type="line"/>
      <point x="345.434" y="311" type="line"/>
      <point x="196" y="311" type="line" smooth="yes"/>
      <point x="166.083" y="311"/>
      <point x="141" y="295.283"/>
      <point x="141" y="257" type="curve" smooth="yes"/>
      <point x="141" y="174" type="line" smooth="yes"/>
      <point x="141" y="124.381"/>
      <point x="154.008" y="87"/>
      <point x="230" y="87" type="curve" smooth="yes"/>
      <point x="292.814" y="87"/>
      <point x="328.21" y="90.05"/>
      <point x="391" y="92" type="curve"/>
      <point x="391" y="-216" type="line"/>
      <point x="278" y="-191" type="line"/>
      <point x="278" y="-7" type="line"/>
      <point x="259.49" y="-9.0567"/>
      <point x="236" y="-10"/>
      <point x="206.501" y="-10" type="curve" smooth="yes"/>
      <point x="107.985" y="-10"/>
      <point x="30" y="28.8"/>
      <point x="30" y="155" type="curve" smooth="yes"/>
      <point x="30" y="255" type="line" smooth="yes"/>
      <point x="30" y="356.307"/>
      <point x="89.6401" y="404"/>
      <point x="162.74" y="404" type="curve" smooth="yes"/>
      <point x="179" y="404" type="line"/>
      <point x="107.252" y="445.853"/>
      <point x="91" y="505.327"/>
      <point x="91" y="544" type="curve" smooth="yes"/>
      <point x="91" y="625.488"/>
      <point x="150.235" y="700"/>
      <point x="246.918" y="700" type="curve" smooth="yes"/>
      <point x="393" y="700" type="line"/>
    </contour>
  </outline>
</glyph>
<glyph name="rho" format="1">
  <advance width="438"/>
  <unicode hex="03C1"/>
  <outline>
    <contour>
      <point x="405" y="170" type="line" smooth="yes"/>
      <point x="405" y="48.6667"/>
      <point x="346.667" y="-17"/>
      <point x="236" y="-17" type="curve" smooth="yes"/>
      <point x="203.325" y="-17"/>
      <point x="169.781" y="-6.87227"/>
      <point x="146" y="7" type="curve"/>
      <point x="146" y="-216" type="line"/>
      <point x="36" y="-192.06" type="line"/>
      <point x="36" y="311" type="line" smooth="yes"/>
      <point x="36" y="437.667"/>
      <point x="102.667" y="506"/>
      <point x="224" y="506" type="curve" smooth="yes"/>
      <point x="338.667" y="506"/>
      <point x="405" y="432.333"/>
      <point x="405" y="311" type="curve" smooth="yes"/>
    </contour>
    <contour>
      <point x="295" y="317" type="line" smooth="yes"/>
      <point x="295" y="365"/>
      <point x="268" y="396"/>
      <point x="220" y="396" type="curve" smooth="yes"/>
      <point x="173.333" y="396"/>
      <point x="146" y="367.667"/>
      <point x="146" y="317" type="curve" smooth="yes"/>
      <point x="146" y="132" type="line" smooth="yes"/>
      <point x="146" y="95.9833"/>
      <point x="197.4" y="82"/>
      <point x="230" y="82" type="curve" smooth="yes"/>
      <point x="272.667" y="82"/>
      <point x="295" y="109.667"/>
      <point x="295" y="155" type="curve" smooth="yes"/>
    </contour>
  </outline>
</glyph>
<glyph name="sigma1" format="1">
  <advance width="351"/>
  <unicode hex="03C2"/>
  <outline>
    <contour>
      <point x="138" y="218" type="line" smooth="yes"/>
      <point x="138" y="186.984"/>
      <point x="162.434" y="166.465"/>
      <point x="185" y="145" type="curve" smooth="yes"/>
      <point x="226" y="106" type="line" smooth="yes"/>
      <point x="256.757" y="76.7429"/>
      <point x="289" y="37.2128"/>
      <point x="289" y="-21" type="curve" smooth="yes"/>
      <point x="289" y="-70.9534"/>
      <point x="257.343" y="-113.621"/>
      <point x="222" y="-147" type="curve"/>
      <point x="154" y="-83" type="line"/>
      <point x="169.18" y="-69.7171"/>
      <point x="186" y="-49.8763"/>
      <point x="186" y="-26" type="curve" smooth="yes"/>
      <point x="186" y="0.666666"/>
      <point x="167.753" y="22.7198"/>
      <point x="145" y="43" type="curve" smooth="yes"/>
      <point x="99" y="84" type="line" smooth="yes"/>
      <point x="65.2002" y="114.126"/>
      <point x="28" y="158"/>
      <point x="28" y="222" type="curve" smooth="yes"/>
      <point x="28" y="338.412" type="line" smooth="yes"/>
      <point x="28" y="426.824"/>
      <point x="80.8046" y="505"/>
      <point x="204" y="505" type="curve" smooth="yes"/>
      <point x="244.973" y="505"/>
      <point x="288.825" y="493.123"/>
      <point x="323" y="469" type="curve"/>
      <point x="286" y="378" type="line"/>
      <point x="264.014" y="389.992"/>
      <point x="235.989" y="398"/>
      <point x="202" y="398" type="curve" smooth="yes"/>
      <point x="146.283" y="398"/>
      <point x="138" y="364.935"/>
      <point x="138" y="334.623" type="curve" smooth="yes"/>
    </contour>
  </outline>
</glyph>
<glyph name="chi" format="1">
  <advance width="541"/>
  <unicode hex="03C7"/>
  <outline>
    <contour>
      <point x="441" y="-61" type="line"/>
      <point x="461" y="-113"/>
      <point x="495.667" y="-140"/>
      <point x="541" y="-140" type="curve"/>
      <point x="489" y="-212" type="line"/>
      <point x="435.667" y="-212"/>
      <point x="391.333" y="-182.333"/>
      <point x="358" y="-117" type="curve"/>
      <point x="256" y="92" type="line"/>
      <point x="105" y="-204" type="line"/>
      <point x="9" y="-161" type="line"/>
      <point x="200" y="207" type="line"/>
      <point x="52" y="499" type="line"/>
      <point x="171" y="499" type="line"/>
      <point x="258" y="319" type="line"/>
      <point x="351" y="499" type="line"/>
      <point x="475" y="499" type="line"/>
      <point x="314" y="204" type="line"/>
    </contour>
  </outline>
</glyph>
<glyph name="psi" format="1">
  <advance width="596"/>
  <unicode hex="03C8"/>
  <outline>
    <contour>
      <point x="529" y="505" type="line"/>
      <point x="555.667" y="471.667"/>
      <point x="561" y="439"/>
      <point x="561" y="387" type="curve" smooth="yes"/>
      <point x="561" y="189" type="line" smooth="yes"/>
      <point x="561" y="67.6667"/>
      <point x="500" y="-7"/>
      <point x="372" y="-7" type="curve" smooth="yes"/>
      <point x="355" y="-7" type="line"/>
      <point x="355" y="-216" type="line"/>
      <point x="246" y="-190" type="line"/>
      <point x="246" y="-7" type="line"/>
      <point x="222" y="-7" type="line" smooth="yes"/>
      <point x="96.6667" y="-7"/>
      <point x="35" y="67.6667"/>
      <point x="35" y="189" type="curve" smooth="yes"/>
      <point x="35" y="499" type="line"/>
      <point x="145" y="499" type="line"/>
      <point x="145" y="172" type="line" smooth="yes"/>
      <point x="145" y="126.743"/>
      <point x="178.31" y="100"/>
      <point x="222" y="100" type="curve" smooth="yes"/>
      <point x="246" y="100" type="line"/>
      <point x="246" y="499" type="line"/>
      <point x="355" y="499" type="line"/>
      <point x="355" y="100" type="line"/>
      <point x="372" y="100" type="line" smooth="yes"/>
      <point x="407.117" y="100"/>
      <point x="451" y="119.5"/>
      <point x="451" y="172" type="curve" smooth="yes"/>
      <point x="451" y="387" type="line" smooth="yes"/>
      <point x="451" y="433.667"/>
      <point x="442.333" y="453"/>
      <point x="425" y="477" type="curve"/>
    </contour>
  </outline>
</glyph>
<glyph name="bullet" format="1">
  <advance width="416"/>
  <unicode hex="2022"/>
  <outline>
    <contour>
      <point x="331" y="462" type="curve" smooth="yes"/>
      <point x="367" y="427.333"/>
      <point x="385" y="385.667"/>
      <point x="385" y="337" type="curve" smooth="yes"/>
      <point x="385" y="287.667"/>
      <point x="365.667" y="244.667"/>
      <point x="331" y="210" type="curve" smooth="yes"/>
      <point x="297" y="175.333"/>
      <point x="255.333" y="158"/>
      <point x="206" y="158" type="curve" smooth="yes"/>
      <point x="156.667" y="158"/>
      <point x="114.333" y="175.333"/>
      <point x="79" y="210" type="curve"/>
      <point x="45" y="245.333"/>
      <point x="28" y="287.667"/>
      <point x="28" y="337" type="curve" smooth="yes"/>
      <point x="28" y="386.333"/>
      <point x="45" y="428"/>
      <point x="79" y="462" type="curve" smooth="yes"/>
      <point x="114.333" y="496.667"/>
      <point x="156.667" y="514"/>
      <point x="206" y="514" type="curve" smooth="yes"/>
      <point x="255.333" y="514"/>
      <point x="297" y="496.667"/>
    </contour>
  </outline>
</glyph>
<glyph name="guilsinglleft" format="1">
  <advance width="320"/>
  <unicode hex="2039"/>
  <outline>
    <contour>
      <point x="27" y="267" type="line"/>
      <point x="214" y="454" type="line"/>
      <point x="287" y="383" type="line"/>
      <point x="167" y="267" type="line"/>
      <point x="286" y="148" type="line"/>
      <point x="214" y="80" type="line"/>
    </contour>
  </outline>
</glyph>
<glyph name="fraction" format="1">
  <advance width="479"/>
  <unicode hex="2044"/>
  <outline>
    <contour>
      <point x="28" y="-114" type="line"/>
      <point x="355" y="816" type="line"/>
      <point x="453" y="816" type="line"/>
      <point x="126" y="-114" type="line"/>
    </contour>
  </outline>
</glyph>
<glyph name="ft" format="1">
  <advance width="500"/>
  <outline>
    <contour>
      <point x="376" y="132" type="line" smooth="yes"/>
      <point x="376" y="86.6667"/>
      <point x="402.333" y="75"/>
      <point x="449" y="75" type="curve"/>
      <point x="416" y="-13" type="line"/>
      <point x="316" y="-10.3333"/>
      <point x="266" y="37.3334"/>
      <point x="266" y="132" type="curve" smooth="yes"/>
      <point x="266" y="605" type="line"/>
      <point x="252.667" y="609"/>
      <point x="237.667" y="609"/>
      <point x="219" y="609" type="curve" smooth="yes"/>
      <point x="186.933" y="609"/>
      <point x="152" y="592.267"/>
      <point x="152" y="548" type="curve" smooth="yes"/>
      <point x="152" y="499" type="line"/>
      <point x="238" y="499" type="line"/>
      <point x="214" y="396" type="line"/>
      <point x="152" y="396" type="line"/>
      <point x="152" y="0" type="line"/>
      <point x="114.667" y="0"/>
      <point x="76.3333" y="0"/>
      <point x="39" y="0" type="curve"/>
      <point x="39" y="516" type="line" smooth="yes"/>
      <point x="39" y="625.229"/>
      <point x="94.9437" y="708"/>
      <point x="230" y="708" type="curve" smooth="yes"/>
      <point x="274" y="708"/>
      <point x="317.333" y="701"/>
      <point x="376" y="685" type="curve"/>
      <point x="376" y="499" type="line"/>
      <point x="471" y="499" type="line"/>
      <point x="447" y="396" type="line"/>
      <point x="376" y="396" type="line"/>
    </contour>
  </outline>
</glyph>
<glyph name="gamma_gamma" format="1">
  <advance width="839"/>
  <outline>
    <contour>
      <point x="452" y="501" type="line"/>
      <point x="282" y="-55" type="line" smooth="yes"/>
      <point x="256" y="-140"/>
      <point x="228" y="-203"/>
      <point x="120" y="-203" type="curve"/>
      <point x="88" y="-117" type="line"/>
      <point x="135" y="-117"/>
      <point x="154" y="-103"/>
      <point x="170" y="-51" type="curve" smooth="yes"/>
      <point x="196" y="32" type="line"/>
      <point x="164" y="38"/>
      <point x="124" y="51"/>
      <point x="104" y="139" type="curve" smooth="yes"/>
      <point x="22" y="501" type="line"/>
      <point x="150" y="501" type="line"/>
      <point x="199" y="172" type="line" smooth="yes"/>
      <point x="206" y="129"/>
      <point x="213" y="127"/>
      <point x="224" y="127" type="curve"/>
      <point x="337" y="501" type="line"/>
    </contour>
    <contour>
      <point x="813" y="468" type="line"/>
      <point x="777" y="452"/>
      <point x="753" y="437"/>
      <point x="733" y="373" type="curve" smooth="yes"/>
      <point x="602" y="-55" type="line" smooth="yes"/>
      <point x="576" y="-140"/>
      <point x="548" y="-203"/>
      <point x="440" y="-203" type="curve"/>
      <point x="408" y="-117" type="line"/>
      <point x="455" y="-117"/>
      <point x="474" y="-103"/>
      <point x="490" y="-51" type="curve" smooth="yes"/>
      <point x="516" y="32" type="line"/>
      <point x="484" y="38"/>
      <point x="444" y="51"/>
      <point x="424" y="139" type="curve" smooth="yes"/>
      <point x="342" y="501" type="line"/>
      <point x="470" y="501" type="line"/>
      <point x="519" y="172" type="line" smooth="yes"/>
      <point x="525" y="131"/>
      <point x="533" y="127"/>
      <point x="544" y="127" type="curve"/>
      <point x="611" y="357" type="line" smooth="yes"/>
      <point x="643" y="468"/>
      <point x="670" y="502"/>
      <point x="757" y="522" type="curve"/>
    </contour>
  </outline>
</glyph>
<glyph name="lambda_lambda" format="1">
  <advance width="831"/>
  <outline>
    <contour>
      <point x="454" y="-1" type="line"/>
      <point x="335" y="-1" type="line"/>
      <point x="232" y="359" type="line"/>
      <point x="231" y="359"/>
      <point x="226" y="357"/>
      <point x="225" y="353" type="curve" smooth="yes"/>
      <point x="152" y="-1" type="line"/>
      <point x="24" y="-1" type="line"/>
      <point x="129" y="355" type="line" smooth="yes"/>
      <point x="155" y="443"/>
      <point x="167" y="459"/>
      <point x="196" y="479" type="curve"/>
      <point x="175" y="551" type="line" smooth="yes"/>
      <point x="160" y="601"/>
      <point x="135" y="616"/>
      <point x="92" y="616" type="curve"/>
      <point x="123" y="702" type="line"/>
      <point x="227" y="702"/>
      <point x="257" y="646"/>
      <point x="284" y="556" type="curve" smooth="yes"/>
    </contour>
    <contour>
      <point x="728" y="128" type="line" smooth="yes"/>
      <point x="746" y="71"/>
      <point x="760" y="59"/>
      <point x="811" y="31" type="curve"/>
      <point x="755" y="-22" type="line"/>
      <point x="667" y="-2"/>
      <point x="638" y="32"/>
      <point x="607" y="143" type="curve" smooth="yes"/>
      <point x="546" y="359" type="line"/>
      <point x="545" y="359"/>
      <point x="540" y="357"/>
      <point x="539" y="353" type="curve" smooth="yes"/>
      <point x="466" y="-1" type="line"/>
      <point x="338" y="-1" type="line"/>
      <point x="443" y="355" type="line" smooth="yes"/>
      <point x="469" y="443"/>
      <point x="481" y="459"/>
      <point x="510" y="479" type="curve"/>
      <point x="489" y="551" type="line" smooth="yes"/>
      <point x="474" y="601"/>
      <point x="449" y="616"/>
      <point x="406" y="616" type="curve"/>
      <point x="437" y="702" type="line"/>
      <point x="541" y="702"/>
      <point x="571" y="646"/>
      <point x="598" y="556" type="curve" smooth="yes"/>
    </contour>
  </outline>
</glyph>
<glyph name="sigma_tau" format="1">
  <advance width="831"/>
  <outline>
    <contour>
      <point x="800" y="397" type="line"/>
      <point x="735" y="389"/>
      <point x="672" y="385"/>
      <point x="624" y="385" type="curve" smooth="yes"/>
      <point x="513" y="385"/>
      <point x="428" y="391"/>
      <point x="380" y="402" type="curve"/>
      <point x="396" y="380"/>
      <point x="401" y="356"/>
      <point x="401" y="317" type="curve" smooth="yes"/>
      <point x="401" y="185" type="line" smooth="yes"/>
      <point x="401" y="67"/>
      <point x="341" y="-10"/>
      <point x="219" y="-10" type="curve" smooth="yes"/>
      <point x="86" y="-10"/>
      <point x="30" y="83"/>
      <point x="30" y="185" type="curve" smooth="yes"/>
      <point x="30" y="321" type="line" smooth="yes"/>
      <point x="30" y="471"/>
      <point x="131" y="512"/>
      <point x="225" y="512" type="curve" smooth="yes"/>
      <point x="258" y="512"/>
      <point x="299" y="507"/>
      <point x="339" y="502" type="curve" smooth="yes"/>
      <point x="443" y="490"/>
      <point x="534" y="486"/>
      <point x="626" y="486" type="curve" smooth="yes"/>
      <point x="681" y="486"/>
      <point x="740" y="491"/>
      <point x="800" y="501" type="curve"/>
    </contour>
    <contour>
      <point x="287" y="323" type="line" smooth="yes"/>
      <point x="287" y="360"/>
      <point x="279" y="390"/>
      <point x="263" y="414" type="curve"/>
      <point x="249" y="417"/>
      <point x="240" y="418"/>
      <point x="231" y="418" type="curve" smooth="yes"/>
      <point x="189" y="418"/>
      <point x="141" y="397"/>
      <point x="141" y="331" type="curve" smooth="yes"/>
      <point x="141" y="177" type="line" smooth="yes"/>
      <point x="141" y="136"/>
      <point x="163" y="99"/>
      <point x="217" y="99" type="curve" smooth="yes"/>
      <point x="268" y="99"/>
      <point x="287" y="132"/>
      <point x="287" y="177" type="curve" smooth="yes"/>
    </contour>
    <contour>
      <point x="689" y="148" type="line" smooth="yes"/>
      <point x="689" y="97"/>
      <point x="706" y="72"/>
      <point x="753" y="56" type="curve"/>
      <point x="705" y="-20" type="line"/>
      <point x="625" y="0"/>
      <point x="579" y="55"/>
      <point x="579" y="133" type="curve" smooth="yes"/>
      <point x="579" y="397" type="line"/>
      <point x="689" y="397" type="line"/>
    </contour>
  </outline>
</glyph>
